<svg xmlns="http://www.w3.org/2000/svg" xmlns:xlink="http://www.w3.org/1999/xlink" width="22" height="16" viewBox="0 0 22 16" class="sc-16bnk0f-4 gwFfSU" style="fill: var(--ac-white);"><defs><clipPath id="clip-\uD64D\uCF69"><rect width="22" height="16"></rect></clipPath></defs><g id="\uD64D\uCF69" clip-path="url(#clip-\uD64D\uCF69)" fill="#FAFAFA"><g id="_7af8644c3efdaec9f73185b6d65f2822febf41798efbdb74a193cf5447512c5cdc9a0ebddaa468413ab8f6fec46c09ed9d1fd5fbe74dc21680932d63e7f3a47b5a914ee2a3964b1409e26b2c1766df3ea55d03b5830a18eac51b7363886ae4f9" data-name="7af8644c3efdaec9f73185b6d65f2822febf41798efbdb74a193cf5447512c5cdc9a0ebddaa468413ab8f6fec46c09ed9d1fd5fbe74dc21680932d63e7f3a47b5a914ee2a3964b1409e26b2c1766df3ea55d03b5830a18eac51b7363886ae4f9" transform="translate(0 0.667)" fill="#FAFAFA"><g id="Untitled" fill="#FAFAFA"><path id="\uD328\uC2A4_3027" data-name="\uD328\uC2A4 3027" d="M0,0H22V14.667H0V0Z" fill="#DE2910" fill-rule="evenodd"></path></g><g id="petal" transform="translate(9.541 3.055)" fill="#FAFAFA"><path id="\uD328\uC2A4_3028" data-name="\uD328\uC2A4 3028" d="M391.761,129.249a2.212,2.212,0,0,1,1.028-4.27.757.757,0,0,0-.286,1.176,1.152,1.152,0,0,1-.46,1.485A.936.936,0,0,0,391.761,129.249Z" transform="translate(-390.303 -124.972)" fill="#FFFFFF" fill-rule="evenodd"></path><path id="\uD328\uC2A4_3029" data-name="\uD328\uC2A4 3029" d="M425.987,180.756l-.145.227-.052-.264-.261-.067.235-.132-.016-.269.2.183.251-.1-.113.245.171.208Z" transform="translate(-424.668 -178.9)" fill="#DE2910" fill-rule="evenodd"></path><path id="\uD328\uC2A4_3030" data-name="\uD328\uC2A4 3030" d="M418.824,208.166a1.416,1.416,0,0,1-.671-.891,1.692,1.692,0,0,1,.2-1.345l-.054-.034a1.757,1.757,0,0,0-.2,1.4,1.46,1.46,0,0,0,.7.93Z" transform="translate(-417.351 -203.918)" fill="#DE2910" fill-rule="evenodd"></path></g><g id="Untitled_2" transform="translate(7.075 5.036)" fill="#FAFAFA"><g id="\uADF8\uB8F9_2592" data-name="\uADF8\uB8F9 2592" transform="translate(3.895 0.183)" fill="#FAFAFA"><path id="\uD328\uC2A4_3031" data-name="\uD328\uC2A4 3031" d="M450.071,215.6a2.212,2.212,0,0,1,4.379-.342.757.757,0,0,0-1.206.092,1.152,1.152,0,0,1-1.555.022A.936.936,0,0,0,450.071,215.6Z" transform="translate(-450.039 -213.49)" fill="#FFFFFF" fill-rule="evenodd"></path><path id="\uD328\uC2A4_3032" data-name="\uD328\uC2A4 3032" d="M532.054,245.255l-.261-.067.235-.132-.017-.269.2.183.251-.1-.113.245.171.208-.268-.032-.145.227Z" transform="translate(-529.764 -244.022)" fill="#DE2910" fill-rule="evenodd"></path><path id="\uD328\uC2A4_3033" data-name="\uD328\uC2A4 3033" d="M448.841,250.021a1.416,1.416,0,0,1,.639-.914,1.693,1.693,0,0,1,1.341-.228l.016-.062a1.757,1.757,0,0,0-1.391.237,1.46,1.46,0,0,0-.667.957Z" transform="translate(-448.778 -247.902)" fill="#DE2910" fill-rule="evenodd"></path></g><g id="\uADF8\uB8F9_2593" data-name="\uADF8\uB8F9 2593" transform="translate(3.922 2.221)" fill="#FAFAFA"><path id="\uD328\uC2A4_3034" data-name="\uD328\uC2A4 3034" d="M450.08,296.933a2.212,2.212,0,0,1,1.678,4.059.757.757,0,0,0-.46-1.119,1.152,1.152,0,0,1-.5-1.472A.936.936,0,0,0,450.08,296.933Z" transform="translate(-450.075 -296.855)" fill="#FFFFFF" fill-rule="evenodd"></path><path id="\uD328\uC2A4_3035" data-name="\uD328\uC2A4 3035" d="M503.494,366.061l-.016-.269.2.183.251-.1-.113.245.171.208-.267-.032-.145.227-.053-.264-.261-.068Z" transform="translate(-501.954 -364.107)" fill="#DE2910" fill-rule="evenodd"></path><path id="\uD328\uC2A4_3036" data-name="\uD328\uC2A4 3036" d="M449.887,298.271a1.416,1.416,0,0,1,1.067.326,1.693,1.693,0,0,1,.631,1.2l.064,0a1.757,1.757,0,0,0-.655-1.25,1.46,1.46,0,0,0-1.116-.339Z" transform="translate(-449.877 -298.161)" fill="#DE2910" fill-rule="evenodd"></path></g><g id="\uADF8\uB8F9_2594" data-name="\uADF8\uB8F9 2594" transform="translate(0.583 2.285)" fill="#FAFAFA"><path id="\uD328\uC2A4_3037" data-name="\uD328\uC2A4 3037" d="M316.6,300.091a2.212,2.212,0,0,1-3.342,2.85.757.757,0,0,0,.922-.783,1.152,1.152,0,0,1,1.245-.932A.936.936,0,0,0,316.6,300.091Z" transform="translate(-313.263 -300.077)" fill="#FFFFFF" fill-rule="evenodd"></path><path id="\uD328\uC2A4_3038" data-name="\uD328\uC2A4 3038" d="M379.771,376.229l.251-.1-.113.245.172.208-.268-.032-.145.227-.052-.264-.261-.067.235-.132-.016-.269Z" transform="translate(-377.738 -374.175)" fill="#DE2910" fill-rule="evenodd"></path><path id="\uD328\uC2A4_3039" data-name="\uD328\uC2A4 3039" d="M411.667,299.527a1.416,1.416,0,0,1,.02,1.115,1.692,1.692,0,0,1-.951.972l.024.059a1.757,1.757,0,0,0,.987-1.009,1.46,1.46,0,0,0-.022-1.166Z" transform="translate(-408.353 -299.498)" fill="#DE2910" fill-rule="evenodd"></path></g><g id="\uADF8\uB8F9_2595" data-name="\uADF8\uB8F9 2595" fill="#FAFAFA"><path id="\uD328\uC2A4_3040" data-name="\uD328\uC2A4 3040" d="M293.355,208.312a2.212,2.212,0,0,1-3.743-2.3.757.757,0,0,0,1.03.635,1.152,1.152,0,0,1,1.271.9A.936.936,0,0,0,293.355,208.312Z" transform="translate(-289.433 -206.014)" fill="#FFFFFF" fill-rule="evenodd"></path><path id="\uD328\uC2A4_3041" data-name="\uD328\uC2A4 3041" d="M331.871,261.7l.171.208-.268-.032-.145.227-.053-.264-.261-.068.235-.131-.017-.269.2.183.251-.1Z" transform="translate(-330.293 -260.022)" fill="#DE2910" fill-rule="evenodd"></path><path id="\uD328\uC2A4_3042" data-name="\uD328\uC2A4 3042" d="M356.324,289.5a1.416,1.416,0,0,1-1.054.363,1.693,1.693,0,0,1-1.218-.6L354,289.3a1.757,1.757,0,0,0,1.265.626,1.46,1.46,0,0,0,1.1-.382Z" transform="translate(-352.424 -287.22)" fill="#DE2910" fill-rule="evenodd"></path></g></g></g></g></svg>