<svg xmlns="http://www.w3.org/2000/svg" xmlns:xlink="http://www.w3.org/1999/xlink" width="22" height="16" viewBox="0 0 22 16" class="sc-16bnk0f-4 gwFfSU" style="fill: var(--ac-white);"><defs><clipPath id="clip-path"><rect id="\uC0AC\uAC01\uD615_1723" data-name="\uC0AC\uAC01\uD615 1723" width="11" height="5.5" fill="none"></rect></clipPath><clipPath id="clip-path-2"><path id="\uD328\uC2A4_3024" data-name="\uD328\uC2A4 3024" d="M0-1.65V1.1H11V3.85Zm11,0H5.5v5.5H0Z" transform="translate(0 1.65)" fill="none"></path></clipPath><clipPath id="clip-\uB274\uC9C8\uB79C\uB4DC"><rect width="22" height="16"></rect></clipPath></defs><g id="\uB274\uC9C8\uB79C\uB4DC" clip-path="url(#clip-\uB274\uC9C8\uB79C\uB4DC)" fill="#FAFAFA"><g id="\uADF8\uB8F9_2598" data-name="\uADF8\uB8F9 2598" transform="translate(0 3.871)" fill="#FAFAFA"><path id="\uD328\uC2A4_3019" data-name="\uD328\uC2A4 3019" d="M0-1.65H22v12H0Z" transform="translate(0 -0.205)" fill="#012169"></path><g id="\uADF8\uB8F9_2580" data-name="\uADF8\uB8F9 2580" transform="translate(0 -1.855)" fill="#FAFAFA"><g id="\uADF8\uB8F9_2579" data-name="\uADF8\uB8F9 2579" transform="translate(0 0)" clip-path="url(#clip-path)" fill="#FAFAFA"><g id="\uADF8\uB8F9_2578" data-name="\uADF8\uB8F9 2578" transform="translate(-0.246 -0.492)" fill="#FAFAFA"><path id="\uD328\uC2A4_3020" data-name="\uD328\uC2A4 3020" d="M0-1.65l11,5.5m0-5.5L0,3.85" transform="translate(0.246 2.142)" fill="#FAFAFA"></path><path id="\uD328\uC2A4_3021" data-name="\uD328\uC2A4 3021" d="M9.2,1.233,3.945-1.394-1.309,1.233-1.8.249,2.715-2.009-1.8-4.267l.492-.984L3.945-2.624,9.2-5.251l.492.984L5.175-2.009,9.691.249Z" transform="translate(1.801 5.251)" fill="#FFFFFF"></path></g></g></g><g id="\uADF8\uB8F9_2583" data-name="\uADF8\uB8F9 2583" transform="translate(0 -1.855)" fill="#FAFAFA"><g id="\uADF8\uB8F9_2582" data-name="\uADF8\uB8F9 2582" clip-path="url(#clip-path-2)" fill="#FAFAFA"><g id="\uADF8\uB8F9_2581" data-name="\uADF8\uB8F9 2581" transform="translate(-0.164 -0.328)" fill="#FAFAFA"><path id="\uD328\uC2A4_3022" data-name="\uD328\uC2A4 3022" d="M0-1.65l11,5.5m0-5.5L0,3.85" transform="translate(0.164 1.978)" fill="#FAFAFA"></path><path id="\uD328\uC2A4_3023" data-name="\uD328\uC2A4 3023" d="M9.8,2.105,4.463-.563-.873,2.105-1.2,1.449,3.643-.973-1.2-3.395l.328-.656L4.463-1.383,9.8-4.051l.328.656L5.283-.973l4.844,2.422Z" transform="translate(1.201 4.051)" fill="#C8172E"></path></g></g></g><g id="\uADF8\uB8F9_2582-2" data-name="\uADF8\uB8F9 2582" transform="translate(0 -1.887)" fill="#FAFAFA"><rect id="\uC0AC\uAC01\uD615_1725" data-name="\uC0AC\uAC01\uD615 1725" width="11" height="1.833" transform="translate(0 1.833)" fill="#FFFFFF"></rect><rect id="\uC0AC\uAC01\uD615_1726" data-name="\uC0AC\uAC01\uD615 1726" width="1.833" height="5.5" transform="translate(4.583)" fill="#FFFFFF"></rect></g><g id="\uADF8\uB8F9_2581-2" data-name="\uADF8\uB8F9 2581" transform="translate(0 -1.887)" fill="#FAFAFA"><rect id="\uC0AC\uAC01\uD615_1723-2" data-name="\uC0AC\uAC01\uD615 1723" width="1.117" height="5.5" transform="translate(4.946)" fill="#C8172E"></rect><rect id="\uC0AC\uAC01\uD615_1724" data-name="\uC0AC\uAC01\uD615 1724" width="11" height="1.117" transform="translate(0 2.191)" fill="#C8172E"></rect></g><g id="\uADF8\uB8F9_2604" data-name="\uADF8\uB8F9 2604" transform="translate(17 15.805)" fill="#FAFAFA"><path id="\uD328\uC2A4_3049" data-name="\uD328\uC2A4 3049" d="M807,162.622h.644l.2-.622.2.622h.644l-.521.384.2.622-.521-.384-.521.384.2-.622Z" transform="translate(-808.432 -177.871)" fill="#FFFFFF" fill-rule="evenodd"></path><path id="\uD328\uC2A4_3050" data-name="\uD328\uC2A4 3050" d="M676,294.614h.644l.2-.614.2.614h.644l-.521.379.2.614-.521-.379-.521.379.2-.614Z" transform="translate(-680 -307.283)" fill="#FFFFFF" fill-rule="evenodd"></path><path id="\uD328\uC2A4_3051" data-name="\uD328\uC2A4 3051" d="M924,265.554h.577l.178-.554.178.554h.577l-.466.342.178.554-.466-.342-.466.342.178-.554Z" transform="translate(-923.138 -278.852)" fill="#FFFFFF" fill-rule="evenodd"></path><path id="\uD328\uC2A4_3052" data-name="\uD328\uC2A4 3052" d="M802,497.7h.726l.224-.7.224.7h.726l-.588.43.224.7-.588-.43-.588.43.224-.7Z" transform="translate(-803.53 -506.304)" fill="#FFFFFF" fill-rule="evenodd"></path><path id="\uD328\uC2A4_3053" data-name="\uD328\uC2A4 3053" d="M822,178.4h.427l.132-.4.132.4h.427l-.345.25.132.4-.345-.25-.345.25.132-.4Z" transform="translate(-823.138 -193.558)" fill="#C8102E" fill-rule="evenodd"></path><path id="\uD328\uC2A4_3054" data-name="\uD328\uC2A4 3054" d="M691,310.4h.427l.132-.4.132.4h.427l-.345.25.132.4-.345-.25-.345.25.132-.4Z" transform="translate(-694.706 -322.97)" fill="#C8102E" fill-rule="evenodd"></path><path id="\uD328\uC2A4_3055" data-name="\uD328\uC2A4 3055" d="M939,280.344h.352l.109-.344.109.344h.352l-.285.213.109.344-.285-.213-.285.213.109-.344Z" transform="translate(-937.844 -293.558)" fill="#C8102E" fill-rule="evenodd"></path><path id="\uD328\uC2A4_3056" data-name="\uD328\uC2A4 3056" d="M818,513.472h.487l.15-.472.15.472h.487l-.394.292.15.472-.394-.292-.394.292.15-.472Z" transform="translate(-819.216 -521.99)" fill="#C8102E" fill-rule="evenodd"></path></g></g></g></svg>