<svg xmlns="http://www.w3.org/2000/svg" xmlns:xlink="http://www.w3.org/1999/xlink" width="22" height="16" viewBox="0 0 22 16" class="sc-16bnk0f-4 gwFfSU" style="fill: var(--ac-white);"><defs><clipPath id="clip-path"><rect id="\uC0AC\uAC01\uD615_1723" data-name="\uC0AC\uAC01\uD615 1723" width="22" height="12" fill="none"></rect></clipPath><clipPath id="clip-path-2"><path id="\uD328\uC2A4_3024" data-name="\uD328\uC2A4 3024" d="M0-1.65v6H22v6Zm22,0H11v12H0Z" transform="translate(0 1.65)" fill="none"></path></clipPath><clipPath id="clip-\uC601\uAD6D"><rect width="22" height="16"></rect></clipPath></defs><g id="\uC601\uAD6D" clip-path="url(#clip-\uC601\uAD6D)" fill="#FAFAFA"><g id="\uADF8\uB8F9_2598" data-name="\uADF8\uB8F9 2598" transform="translate(0 3.871)" fill="#FAFAFA"><path id="\uD328\uC2A4_3019" data-name="\uD328\uC2A4 3019" d="M0-1.65H22v12H0Z" transform="translate(0 -0.22)" fill="#012169"></path><g id="\uADF8\uB8F9_2580" data-name="\uADF8\uB8F9 2580" transform="translate(0 -1.872)" fill="#FAFAFA"><g id="\uADF8\uB8F9_2579" data-name="\uADF8\uB8F9 2579" transform="translate(0 0)" clip-path="url(#clip-path)" fill="#FAFAFA"><g id="\uADF8\uB8F9_2578" data-name="\uADF8\uB8F9 2578" transform="translate(-0.492 -1.073)" fill="#FAFAFA"><path id="\uD328\uC2A4_3020" data-name="\uD328\uC2A4 3020" d="M0-1.65l22,12m0-12-22,12" transform="translate(0.492 2.723)" fill="#FAFAFA"></path><path id="\uD328\uC2A4_3021" data-name="\uD328\uC2A4 3021" d="M20.2,8.9,9.691,3.164-.817,8.9-1.8,6.749,7.232,1.822-1.8-3.1l.984-2.147L9.691.48,20.2-5.251,21.183-3.1,12.151,1.822l9.032,4.927Z" transform="translate(1.801 5.251)" fill="#FFFFFF"></path></g></g></g><g id="\uADF8\uB8F9_2583" data-name="\uADF8\uB8F9 2583" transform="translate(0 -1.871)" fill="#FAFAFA"><g id="\uADF8\uB8F9_2582" data-name="\uADF8\uB8F9 2582" transform="translate(0 0)" clip-path="url(#clip-path-2)" fill="#FAFAFA"><g id="\uADF8\uB8F9_2581" data-name="\uADF8\uB8F9 2581" transform="translate(-0.328 -0.715)" fill="#FAFAFA"><path id="\uD328\uC2A4_3022" data-name="\uD328\uC2A4 3022" d="M0-1.65l22,12m0-12-22,12" transform="translate(0.328 2.365)" fill="#FAFAFA"></path><path id="\uD328\uC2A4_3023" data-name="\uD328\uC2A4 3023" d="M20.8,9.38,10.127,3.559-.545,9.38-1.2,7.949,8.488,2.665-1.2-2.62l.656-1.431L10.127,1.77,20.8-4.051l.656,1.431L11.767,2.665l9.688,5.284Z" transform="translate(1.201 4.051)" fill="#C8172E"></path></g></g></g><g id="\uADF8\uB8F9_2582-2" data-name="\uADF8\uB8F9 2582" transform="translate(0 -1.888)" fill="#FAFAFA"><rect id="\uC0AC\uAC01\uD615_1725" data-name="\uC0AC\uAC01\uD615 1725" width="22" height="3.988" transform="translate(0 3.988)" fill="#FFFFFF"></rect><rect id="\uC0AC\uAC01\uD615_1726" data-name="\uC0AC\uAC01\uD615 1726" width="3.667" height="12" transform="translate(9.167 0.018)" fill="#FFFFFF"></rect></g><g id="\uADF8\uB8F9_2581-2" data-name="\uADF8\uB8F9 2581" transform="translate(0 -1.888)" fill="#FAFAFA"><rect id="\uC0AC\uAC01\uD615_1723-2" data-name="\uC0AC\uAC01\uD615 1723" width="2.235" height="12" transform="translate(9.891 0.018)" fill="#C8172E"></rect><rect id="\uC0AC\uAC01\uD615_1724" data-name="\uC0AC\uAC01\uD615 1724" width="22" height="2.43" transform="translate(0 4.801)" fill="#C8172E"></rect></g></g></g></svg>