<svg xmlns:xlink="http://www.w3.org/1999/xlink" xmlns="http://www.w3.org/2000/svg" width="22" height="16" viewBox="0 0 22 16" class="sc-16bnk0f-4 gwFfSU" style="fill: var(--ac-white);"><defs><clipPath id="06tzopeo5a"><path data-name="\uC0AC\uAC01\uD615 1577" transform="translate(-35.643 -24.438)" d="M0 0h20v15H0z" style="fill: rgb(255, 255, 255);"></path></clipPath></defs><path d="M0 0h22v16H0z" style="" fill="none"></path><g data-name="\uB9C8\uC2A4\uD06C \uADF8\uB8F9 84" transform="translate(36.643 24.938)" style="clip-path: url(&quot;#06tzopeo5a&quot;);" fill="#FAFAFA"><g data-name="455e16f1fee11b1f29ee250499b7bb020e7f768ff9344a1fd35d0a998476f806c6817814475307f52c0a5c5d5028692659978a9a7bd4f07af8c33cdb0c0be9f42f6ed8fa661d71fb57b6a3" fill="#FAFAFA"><path data-name="\uC0AC\uAC01\uD615 1580" d="M0 0h20.715v13.81H0z" transform="translate(-36 -23.844)" style="" fill="#EE1C25"></path><path data-name="\uD328\uC2A4 2486" d="M-.122-2.2 1.1 1.547-2.092-.769h3.94L-1.34 1.547z" transform="translate(-32.425 -20.263)" style="" fill="#FFFF00"></path><path data-name="\uD328\uC2A4 2487" d="m.657 0 .406 1.249L0 .477h1.313l-1.062.772z" transform="rotate(23.036 42.59 -83.885)" style="" fill="#FFFF00"></path><path data-name="\uD328\uC2A4 2488" d="m.657 0 .406 1.249L0 .477h1.313l-1.062.772z" transform="rotate(45.87 12.199 -43.72)" style="" fill="#FFFF00"></path><path data-name="\uD328\uC2A4 2489" d="m.657 0 .406 1.249L0 .477h1.313l-1.062.772z" transform="rotate(69.945 .553 -29.44)" style="" fill="#FFFF00"></path><path data-name="\uD328\uC2A4 2490" d="m.657 0 .406 1.249L0 .477h1.313l-1.062.772z" transform="rotate(20.66 36.035 -90.083)" style="" fill="#FFFF00"></path></g></g></svg>