<svg xmlns:xlink="http://www.w3.org/1999/xlink" xmlns="http://www.w3.org/2000/svg" width="105" height="36" viewBox="0 0 105 36" style="fill: var(--ac-white);"><path data-name="\uC0AC\uAC01\uD615 1717" d="M0 0h105v36H0z" style="" fill="none"></path><path data-name="\uD328\uC2A4 3006" d="M14.248 0h5.122l-4.394-18.2h-5.07L-1.768 0h5.434l2.106-3.536h7.748zM8.034-7.332l3.484-5.9 1.222 5.9zM39.6-12.4c0-3.64-2.678-5.8-7.332-5.8h-7.776L20.852 0H26l.962-4.836h2.6L32.266 0h5.382l-3.094-5.46A7.031 7.031 0 0 0 39.6-12.4zm-5.2.494c0 2-1.326 3.094-3.588 3.094h-3.07l1.092-5.33h2.7c1.772-.002 2.866.7 2.866 2.234zM43.68 0h5.148l2.834-14.118h5.564l.832-4.082h-16.3l-.832 4.082h5.59zm12.662 0h5.148l3.64-18.2h-5.148zm15.6.364c5.33 0 8.758-2.574 8.758-6.474 0-5.616-8.866-4.186-8.84-6.682 0-.988 1.144-1.768 3.276-1.768a9.358 9.358 0 0 1 4.992 1.378L82-17a12.724 12.724 0 0 0-6.552-1.56c-5.382 0-8.736 2.574-8.736 6.5 0 5.72 8.84 4.368 8.84 6.812 0 .988-1.144 1.612-3.12 1.612a11.419 11.419 0 0 1-6.058-1.794L64.35-1.586a14.215 14.215 0 0 0 7.592 1.95zM85.566 0h5.148l2.834-14.118h5.564l.832-4.082h-16.3l-.832 4.082H88.4z" transform="translate(4 27.1)" style="" fill="#08080D"></path></svg>