<svg xmlns:xlink="http://www.w3.org/1999/xlink" xmlns="http://www.w3.org/2000/svg" width="22" height="16" viewBox="0 0 22 16" class="sc-16bnk0f-4 gwFfSU" style="fill: var(--ac-white);"><path d="M0 0h22v16H0z" style="" fill="none"></path><path data-name="\uC0AC\uAC01\uD615 1577" transform="translate(1 .5)" d="M0 0h20v15H0z" style="" fill="#FFFFFF"></path><g data-name="\uADF8\uB8F9 2184" fill="#FAFAFA"><path d="M0 0h3.673M0 .917h3.673M0 1.835h3.673" transform="rotate(-56.29 6.611 -.824)" style="" stroke="#000000" fill="#FAFAFA" stroke-width="0.5px"></path><path data-name="\uD328\uC2A4 2440" d="M0 0h3.673M0 .917h3.673M0 1.835h3.673" transform="rotate(-56.29 19.194 -7.539)" style="" stroke="#000000" fill="#FAFAFA" stroke-width="0.5px"></path><path data-name="\uD328\uC2A4 2441" d="M0 0v3.058" transform="rotate(-56.29 17.703 -8.945)" style="" stroke="#FFFFFF" fill="#FAFAFA"></path><path data-name="\uD328\uC2A4 2445" d="M3.673 0A3.67 3.67 0 1 1 0 3.67 3.661 3.661 0 0 1 3.673 0z" transform="rotate(-56.29 11.25 -1.092)" style="" fill="#CD2E3A"></path><path data-name="\uD328\uC2A4 2442" d="M3.673 0a1.835 1.835 0 1 0 0 3.67 1.835 1.835 0 1 1 0 3.67 3.67 3.67 0 1 1 0-7.34z" transform="rotate(-56.29 11.25 -1.092)" style="" fill="#0047A0"></path></g><g data-name="\uADF8\uB8F9 2186" fill="#FAFAFA"><g data-name="\uADF8\uB8F9 2185" fill="#FAFAFA"><path data-name="b" d="M0 0h3.673M0 .917h3.673M0 1.835h3.673" transform="rotate(-123.71 6.477 5.3)" style="" stroke="#000000" fill="#FAFAFA" stroke-width="0.5px"></path><path data-name="\uD328\uC2A4 2443" d="M0 0h3.673M0 .917h3.673M0 1.835h3.673" transform="rotate(-123.71 10.068 -1.432)" style="" stroke="#000000" fill="#FAFAFA" stroke-width="0.5px"></path></g><path data-name="\uD328\uC2A4 2444" d="M0 0v.917m.015 11.468v1.07m0 .917v.917" transform="rotate(-123.71 5.681 4.579)" style="" stroke="#FFFFFF" fill="#FAFAFA"></path></g></svg>