<svg xmlns="http://www.w3.org/2000/svg" xmlns:xlink="http://www.w3.org/1999/xlink" width="22" height="16" viewBox="0 0 22 16" class="sc-16bnk0f-4 gwFfSU" style="fill: var(--ac-white);"><defs><clipPath id="clip-path"><rect id="\uC0AC\uAC01\uD615_1723" data-name="\uC0AC\uAC01\uD615 1723" width="11" height="5.5" fill="none"></rect></clipPath><clipPath id="clip-path-2"><path id="\uD328\uC2A4_3024" data-name="\uD328\uC2A4 3024" d="M0-1.65V1.1H11V3.85Zm11,0H5.5v5.5H0Z" transform="translate(0 1.65)" fill="none"></path></clipPath><clipPath id="clip-\uD638\uC8FC"><rect width="22" height="16"></rect></clipPath></defs><g id="\uD638\uC8FC" clip-path="url(#clip-\uD638\uC8FC)" fill="#FAFAFA"><g id="\uADF8\uB8F9_2591" data-name="\uADF8\uB8F9 2591" transform="translate(0 3.871)" fill="#FAFAFA"><path id="\uD328\uC2A4_3019" data-name="\uD328\uC2A4 3019" d="M0-1.65H22v12H0Z" transform="translate(0 -0.205)" fill="#012169"></path><g id="\uADF8\uB8F9_2580" data-name="\uADF8\uB8F9 2580" transform="translate(0 -1.855)" fill="#FAFAFA"><g id="\uADF8\uB8F9_2579" data-name="\uADF8\uB8F9 2579" transform="translate(0 0)" clip-path="url(#clip-path)" fill="#FAFAFA"><g id="\uADF8\uB8F9_2578" data-name="\uADF8\uB8F9 2578" transform="translate(-0.246 -0.492)" fill="#FAFAFA"><path id="\uD328\uC2A4_3020" data-name="\uD328\uC2A4 3020" d="M0-1.65l11,5.5m0-5.5L0,3.85" transform="translate(0.246 2.142)" fill="#FAFAFA"></path><path id="\uD328\uC2A4_3021" data-name="\uD328\uC2A4 3021" d="M9.2,1.233,3.945-1.394-1.309,1.233-1.8.249,2.715-2.009-1.8-4.267l.492-.984L3.945-2.624,9.2-5.251l.492.984L5.175-2.009,9.691.249Z" transform="translate(1.801 5.251)" fill="#FFFFFF"></path></g></g></g><g id="\uADF8\uB8F9_2583" data-name="\uADF8\uB8F9 2583" transform="translate(0 -1.855)" fill="#FAFAFA"><g id="\uADF8\uB8F9_2582" data-name="\uADF8\uB8F9 2582" clip-path="url(#clip-path-2)" fill="#FAFAFA"><g id="\uADF8\uB8F9_2581" data-name="\uADF8\uB8F9 2581" transform="translate(-0.164 -0.328)" fill="#FAFAFA"><path id="\uD328\uC2A4_3022" data-name="\uD328\uC2A4 3022" d="M0-1.65l11,5.5m0-5.5L0,3.85" transform="translate(0.164 1.978)" fill="#FAFAFA"></path><path id="\uD328\uC2A4_3023" data-name="\uD328\uC2A4 3023" d="M9.8,2.105,4.463-.563-.873,2.105-1.2,1.449,3.643-.973-1.2-3.395l.328-.656L4.463-1.383,9.8-4.051l.328.656L5.283-.973l4.844,2.422Z" transform="translate(1.201 4.051)" fill="#E4002B"></path></g></g></g><g id="\uADF8\uB8F9_2590" data-name="\uADF8\uB8F9 2590" transform="translate(3.891 -0.807)" fill="#FAFAFA"><g id="\uADF8\uB8F9_2584" data-name="\uADF8\uB8F9 2584" transform="translate(0 5.552)" fill="#FAFAFA"><path id="c" d="M30.1,46.669l.318.989.972-.368-.575.866.894.53-1.035.09.143,1.029-.716-.753-.716.753.143-1.029-1.035-.09.894-.53-.575-.866.972.368Z" transform="translate(-28.489 -46.669)" fill="#FFFFFF"></path></g><g id="\uADF8\uB8F9_2585" data-name="\uADF8\uB8F9 2585" transform="translate(11.843 7.333)" fill="#FAFAFA"><path id="c-2" data-name="c" d="M115.955,59.707l.151.471.463-.175-.274.412.426.253-.493.043.068.49-.341-.359-.341.359.068-.49-.493-.043.425-.253L115.341,60l.463.175Z" transform="translate(-115.189 -59.707)" fill="#FFFFFF"></path></g><g id="\uADF8\uB8F9_2586" data-name="\uADF8\uB8F9 2586" transform="translate(9.093 2.979)" fill="#FAFAFA"><path id="c-3" data-name="c" d="M95.822,27.83l.151.471.463-.175-.274.412.426.253-.493.043.068.49-.341-.359-.341.359.068-.49-.493-.043.425-.253-.274-.412.463.175Z" transform="translate(-95.056 -27.83)" fill="#FFFFFF"></path></g><g id="\uADF8\uB8F9_2587" data-name="\uADF8\uB8F9 2587" transform="translate(11.843)" fill="#FAFAFA"><path id="c-4" data-name="c" d="M115.955,6.02l.151.471.463-.175-.274.412.426.253-.493.043.068.49-.341-.359-.341.359.068-.49-.493-.043.425-.253-.274-.412.463.175Z" transform="translate(-115.189 -6.02)" fill="#FFFFFF"></path></g><g id="\uADF8\uB8F9_2588" data-name="\uADF8\uB8F9 2588" transform="translate(14.287 2.246)" fill="#FAFAFA"><path id="c-5" data-name="c" d="M133.85,22.462l.152.471.463-.175-.274.412.425.253-.493.043.068.49-.341-.359-.341.359.068-.49-.493-.043.426-.253-.274-.412.463.175Z" transform="translate(-133.084 -22.462)" fill="#FFFFFF"></path></g><g id="\uADF8\uB8F9_2589" data-name="\uADF8\uB8F9 2589" transform="translate(13.273 4.452)" fill="#FAFAFA"><path id="d" d="M126.095,38.616l.12.294.316.023-.242.2.076.308-.269-.167-.27.167.076-.308-.242-.2.316-.023Z" transform="translate(-125.659 -38.616)" fill="#FFFFFF"></path></g></g><g id="\uADF8\uB8F9_2582-2" data-name="\uADF8\uB8F9 2582" transform="translate(0 -1.887)" fill="#FAFAFA"><rect id="\uC0AC\uAC01\uD615_1725" data-name="\uC0AC\uAC01\uD615 1725" width="11" height="1.833" transform="translate(0 1.833)" fill="#FFFFFF"></rect><rect id="\uC0AC\uAC01\uD615_1726" data-name="\uC0AC\uAC01\uD615 1726" width="1.833" height="5.5" transform="translate(4.583)" fill="#FFFFFF"></rect></g><g id="\uADF8\uB8F9_2581-2" data-name="\uADF8\uB8F9 2581" transform="translate(0 -1.887)" fill="#FAFAFA"><rect id="\uC0AC\uAC01\uD615_1723-2" data-name="\uC0AC\uAC01\uD615 1723" width="1.117" height="5.5" transform="translate(4.946)" fill="#E41B2B"></rect><rect id="\uC0AC\uAC01\uD615_1724" data-name="\uC0AC\uAC01\uD615 1724" width="11" height="1.117" transform="translate(0 2.191)" fill="#E41B2B"></rect></g></g></g></svg>