<svg xmlns="http://www.w3.org/2000/svg" xmlns:xlink="http://www.w3.org/1999/xlink" width="22" height="16" viewBox="0 0 22 16" class="sc-16bnk0f-4 gwFfSU" style="fill: var(--ac-white);"><defs><clipPath id="clip-path2"><rect id="\uC0AC\uAC01\uD615_1724" data-name="\uC0AC\uAC01\uD615 1724" width="22" height="12.727" transform="translate(-1 93.204)"></rect></clipPath><clipPath id="clip-\uCE90\uB098\uB2E42"><rect width="22" height="16"></rect></clipPath></defs><g id="\uCE90\uB098\uB2E4" clip-path="url(#clip-\uCE90\uB098\uB2E42)" fill="#FAFAFA"><g id="_54576175bd38b00e91e64a68260d1ed3d19c91d7f6f4aad5b01062b466bbeda104dc37aaecc2320e826799d4b230a04d0bdf0edafbd24a6d0464f0dad9937cd6b1ebd14a613045f57375bcdd36b923712336bed3cef5e8336711d71983b5ad53" data-name="54576175bd38b00e91e64a68260d1ed3d19c91d7f6f4aad5b01062b466bbeda104dc37aaecc2320e826799d4b230a04d0bdf0edafbd24a6d0464f0dad9937cd6b1ebd14a613045f57375bcdd36b923712336bed3cef5e8336711d71983b5ad53" transform="translate(1 -91.5)" clip-path="url(#clip-path2)" fill="#FAFAFA"><path id="\uD328\uC2A4_3025" data-name="\uD328\uC2A4 3025" d="M0,94H5.5l.227.263H16.259L16.485,94h5.5v12.729h-5.5l-.227-.263H5.722l-.227.263H0Z" transform="translate(-0.98 -0.798)" fill="#DA291C" fill-rule="evenodd"></path><path id="\uD328\uC2A4_3026" data-name="\uD328\uC2A4 3026" d="M283,94h12.591v12.729H283Zm6.531,11.747-.118-2.288a.251.251,0,0,1,.237-.263.247.247,0,0,1,.054,0l2.253.4-.3-.849a.174.174,0,0,1,.052-.194l2.468-2.021-.556-.263a.173.173,0,0,1-.089-.209l.488-1.517-1.422.3a.17.17,0,0,1-.191-.1l-.275-.655-1.11,1.2a.169.169,0,0,1-.241.006.174.174,0,0,1-.05-.158l.535-2.79-.858.5a.17.17,0,0,1-.233-.062l-.005-.01-.871-1.729-.871,1.729a.17.17,0,0,1-.229.077l-.01-.005-.858-.5.535,2.79a.172.172,0,0,1-.135.2.169.169,0,0,1-.156-.051l-1.11-1.2-.275.655a.17.17,0,0,1-.191.1l-1.422-.3.488,1.517a.173.173,0,0,1-.089.209l-.556.263,2.468,2.021a.174.174,0,0,1,.052.194l-.3.849,2.253-.4a.249.249,0,0,1,.288.206.255.255,0,0,1,0,.054l-.118,2.288Z" transform="translate(-279.295 -0.797)" fill="#FFFFFF" fill-rule="evenodd"></path></g></g></svg>