<svg xmlns="http://www.w3.org/2000/svg" xmlns:xlink="http://www.w3.org/1999/xlink" width="22" height="16" viewBox="0 0 22 16" class="sc-16bnk0f-4 gwFfSU" style="fill: var(--ac-white);"><defs><clipPath id="clip-\uB9D0\uB808\uC774\uC2DC\uC544"><rect width="22" height="16"></rect></clipPath></defs><g id="\uB9D0\uB808\uC774\uC2DC\uC544" clip-path="url(#clip-\uB9D0\uB808\uC774\uC2DC\uC544)" fill="#FAFAFA"><g id="df886cc6edaa29a418280adb1b4a575b5077e13f839d99bf2366e379e31fde42f1345797b05cadc7a495195d93dd671ea4af2f65b09d29adc2dd920a433eb0932db47e33cff5817410b62c" transform="translate(0 1.195)" fill="#FAFAFA"><g id="\uADF8\uB8F9_2597" data-name="\uADF8\uB8F9 2597" transform="translate(0 -0.403)" fill="#FAFAFA"><rect id="\uC0AC\uAC01\uD615_1731" data-name="\uC0AC\uAC01\uD615 1731" width="22" height="14" transform="translate(0 0.208)" fill="#FFFFFF"></rect><rect id="\uC0AC\uAC01\uD615_1725" data-name="\uC0AC\uAC01\uD615 1725" width="22" height="1" transform="translate(0 0.208)" fill="#CC1800"></rect><rect id="\uC0AC\uAC01\uD615_1726" data-name="\uC0AC\uAC01\uD615 1726" width="22" height="1" transform="translate(0 2.208)" fill="#CC1800"></rect><rect id="\uC0AC\uAC01\uD615_1727" data-name="\uC0AC\uAC01\uD615 1727" width="22" height="1" transform="translate(0 4.208)" fill="#CC1800"></rect><rect id="\uC0AC\uAC01\uD615_1728" data-name="\uC0AC\uAC01\uD615 1728" width="22" height="1" transform="translate(0 6.208)" fill="#CC1800"></rect><rect id="\uC0AC\uAC01\uD615_1732" data-name="\uC0AC\uAC01\uD615 1732" width="22" height="1" transform="translate(0 8.208)" fill="#CC1800"></rect><rect id="\uC0AC\uAC01\uD615_1729" data-name="\uC0AC\uAC01\uD615 1729" width="22" height="1" transform="translate(0 10.208)" fill="#CC1800"></rect><rect id="\uC0AC\uAC01\uD615_1730" data-name="\uC0AC\uAC01\uD615 1730" width="22" height="1" transform="translate(0 12.208)" fill="#CC1800"></rect><path id="\uD328\uC2A4_3048" data-name="\uD328\uC2A4 3048" d="M0,0H11.077V8H0Z" transform="translate(0 0.207)" fill="#000066"></path><path id="\uD328\uC2A4_3047" data-name="\uD328\uC2A4 3047" d="M1326.28,480.441l.214,1.46.826-1.223-.443,1.408,1.275-.744-1.009,1.077,1.472-.118-1.376.533,1.376.533-1.472-.118,1.009,1.077-1.275-.744.443,1.408-.826-1.223-.214,1.46-.213-1.46-.826,1.223.443-1.408-1.275.744,1.009-1.077-1.472.118,1.376-.533-1.376-.533,1.472.118-1.009-1.077,1.275.744-.443-1.408.826,1.223Zm-1.2.06a2.553,2.553,0,1,0,0,4.667,2.872,2.872,0,1,1,0-4.667Z" transform="translate(-1319.036 -478.755)" fill="#FFCC00"></path></g></g></g></svg>