<svg xmlns="http://www.w3.org/2000/svg" xmlns:xlink="http://www.w3.org/1999/xlink" width="22" height="16" viewBox="0 0 22 16" class="sc-16bnk0f-4 gwFfSU" style="fill: var(--ac-white);"><defs><clipPath id="clip-\uD544\uB9AC\uD540"><rect width="22" height="16"></rect></clipPath></defs><g id="\uD544\uB9AC\uD540" clip-path="url(#clip-\uD544\uB9AC\uD540)" fill="#FAFAFA"><g id="_9d982f29d853f7e7ca925f03112153bb4eb4cf7b79a365d0cbd025c597e98db86c8f2640d1a57ec6934228f153e84ba010a2f1b8a2d3d385372dc3875a5dd9f4f8c4624a7203908007f2b19ffce7b028792ebabf6924e0322df5be986559b758" data-name="9d982f29d853f7e7ca925f03112153bb4eb4cf7b79a365d0cbd025c597e98db86c8f2640d1a57ec6934228f153e84ba010a2f1b8a2d3d385372dc3875a5dd9f4f8c4624a7203908007f2b19ffce7b028792ebabf6924e0322df5be986559b758" transform="translate(0 1.5)" fill="#FAFAFA"><rect id="\uC0AC\uAC01\uD615_1733" data-name="\uC0AC\uAC01\uD615 1733" width="22" height="13" fill="#0038A8"></rect><rect id="\uC0AC\uAC01\uD615_1734" data-name="\uC0AC\uAC01\uD615 1734" width="22" height="6.5" transform="translate(0 6.5)" fill="#CE1126"></rect><path id="\uD328\uC2A4_3057" data-name="\uD328\uC2A4 3057" d="M10.524,6.5,0,13V0" fill="#FFFFFF"></path><path id="\uD328\uC2A4_3058" data-name="\uD328\uC2A4 3058" d="M3.135,10.392l.366.316.423-.233-.188.446.353.331-.482-.041-.206.438-.11-.471-.48-.06.414-.25Z" transform="translate(-2.528 -8.916)" fill="#FCD116"></path><path id="\uD328\uC2A4_3059" data-name="\uD328\uC2A4 3059" d="M80.618,53.66l.01.483.457.159-.457.159-.01.483-.292-.385-.463.14.276-.4-.276-.4.463.14Z" transform="translate(-71.776 -47.802)" fill="#FCD116"></path><path id="\uD328\uC2A4_3060" data-name="\uD328\uC2A4 3060" d="M3.4,97.2l.206.438.482-.041-.353.331.188.446L3.5,98.144l-.366.316.091-.475-.414-.25.48-.06Z" transform="translate(-2.528 -86.937)" fill="#FCD116"></path><path id="\uD328\uC2A4_3061" data-name="\uD328\uC2A4 3061" d="M14.565,34.667l-.158.158.078,1.195-.079.008-.144-1.09-.129.129.194.975a1.208,1.208,0,0,0-.438.181l-.552-.826h-.182l.67.873c-.021.016-.041.033-.061.051l-.79-.9h-.223v.223l.9.79q-.026.03-.051.061l-.873-.67V36l.826.552a1.208,1.208,0,0,0-.182.438L12.4,36.8l-.129.129,1.09.144q-.005.039-.008.079l-1.195-.078L12,37.232l.158.158,1.195-.078c0,.027,0,.053.008.079l-1.09.143.129.129.975-.194a1.208,1.208,0,0,0,.181.438l-.826.552v.182l.873-.67c.016.021.033.041.051.061l-.9.79v.223h.223l.79-.9q.03.026.061.05l-.67.873h.182l.552-.826a1.207,1.207,0,0,0,.438.182l-.194.975.129.129.144-1.09.079.008-.078,1.195.158.158.158-.158-.078-1.195.079-.008.144,1.09L15,39.4l-.194-.975a1.208,1.208,0,0,0,.438-.181l.552.826h.182l-.67-.873c.021-.016.041-.033.061-.051l.79.9h.223v-.223l-.9-.79q.026-.03.051-.061l.873.67v-.182l-.826-.552a1.208,1.208,0,0,0,.182-.438l.975.194.129-.129-1.09-.144q.005-.039.008-.079l1.195.078.158-.158-.158-.158-1.195.078q0-.04-.008-.079l1.09-.144-.129-.129-.975.194a1.208,1.208,0,0,0-.182-.438L16.4,36v-.182l-.873.67c-.016-.021-.033-.041-.051-.061l.9-.79v-.223h-.223l-.79.9q-.03-.026-.061-.051l.67-.873h-.182l-.552.826a1.208,1.208,0,0,0-.438-.182L15,35.065l-.129-.129-.144,1.09-.079-.008.078-1.195Z" transform="translate(-10.785 -30.732)" fill="#FCD116"></path></g></g></svg>