<svg xmlns="http://www.w3.org/2000/svg" xmlns:xlink="http://www.w3.org/1999/xlink" width="22" height="16" viewBox="0 0 22 16" class="sc-16bnk0f-4 gwFfSU" style="fill: var(--ac-white);"><defs><clipPath id="clip-path"><rect id="\uC0AC\uAC01\uD615_1735" data-name="\uC0AC\uAC01\uD615 1735" width="22" height="15" transform="translate(-1 -1)"></rect></clipPath><clipPath id="clip-\uC2F1\uAC00\uD3EC\uB974"><rect width="22" height="16"></rect></clipPath></defs><g id="\uC2F1\uAC00\uD3EC\uB974" clip-path="url(#clip-\uC2F1\uAC00\uD3EC\uB974)" fill="#FAFAFA"><g id="_49de1bc414882dd7eefee05d1517c98ae4d6e871a87f55af7a1500c9f4483a2eff447503bb1f4956b50253c4f2d963f5bfc1d215fa74af1e7a64ed452e3778eea4c9c754d9630d788e35fe89547c22e6c7edbdcfca5a66fd4b2d6463f044aa19" data-name="49de1bc414882dd7eefee05d1517c98ae4d6e871a87f55af7a1500c9f4483a2eff447503bb1f4956b50253c4f2d963f5bfc1d215fa74af1e7a64ed452e3778eea4c9c754d9630d788e35fe89547c22e6c7edbdcfca5a66fd4b2d6463f044aa19" transform="translate(1 1.5)" clip-path="url(#clip-path)" fill="#FAFAFA"><path id="\uD328\uC2A4_3062" data-name="\uD328\uC2A4 3062" d="M0,0H22V15H0Z" transform="translate(-1 -0.981)" fill="#ED2939" fill-rule="evenodd"></path><path id="\uD328\uC2A4_3063" data-name="\uD328\uC2A4 3063" d="M0,378H22v7.5H0Z" transform="translate(-1 -371.5)" fill="#FFFFFF" fill-rule="evenodd"></path><path id="\uD328\uC2A4_3064" data-name="\uD328\uC2A4 3064" d="M110.483,49.741A2.741,2.741,0,1,1,107.741,47,2.741,2.741,0,0,1,110.483,49.741Z" transform="translate(-103.954 -47.073)" fill="#FFFFFF" fill-rule="evenodd"></path><path id="\uD328\uC2A4_3065" data-name="\uD328\uC2A4 3065" d="M170.193,57.587A2.6,2.6,0,1,1,167.6,55,2.592,2.592,0,0,1,170.193,57.587Z" transform="translate(-162.795 -54.919)" fill="#ED2939" fill-rule="evenodd"></path><path id="\uD328\uC2A4_3066" data-name="\uD328\uC2A4 3066" d="M214.968,131.2l-.37-.284-.37.284.142-.458-.371-.282h.458l.14-.458.141.458h.458l-.371.282Z" transform="translate(-210.849 -128.471)" fill="#FFFFFF" fill-rule="evenodd"></path><path id="\uD328\uC2A4_3067" data-name="\uD328\uC2A4 3067" d="M366.045,131.2l-.376-.284-.376.284.145-.458-.377-.282h.465l.143-.458.143.458h.465l-.377.282Z" transform="translate(-358.994 -128.471)" fill="#FFFFFF" fill-rule="evenodd"></path><path id="\uD328\uC2A4_3068" data-name="\uD328\uC2A4 3068" d="M291,75.175l-.37-.284-.37.284.142-.458-.371-.282h.458l.14-.458.141.458h.458l-.371.282Z" transform="translate(-285.411 -73.53)" fill="#FFFFFF" fill-rule="evenodd"></path><path id="\uD328\uC2A4_3069" data-name="\uD328\uC2A4 3069" d="M243,221.233l-.376-.284-.376.284.145-.458-.377-.282h.465l.143-.458.143.458h.465l-.377.282Z" transform="translate(-238.319 -216.769)" fill="#FFFFFF" fill-rule="evenodd"></path><path id="\uD328\uC2A4_3070" data-name="\uD328\uC2A4 3070" d="M338.018,221.233l-.37-.284-.37.284.142-.458-.371-.282h.458l.14-.458.141.458h.458l-.371.282Z" transform="translate(-331.523 -216.769)" fill="#FFFFFF" fill-rule="evenodd"></path><g id="\uD328\uC2A4_3072" data-name="\uD328\uC2A4 3072" transform="translate(-1 -0.98)" fill="none" fill-rule="evenodd"><path d="M0,0H22V15H0Z" stroke="none" fill="none"></path><path d="M 0.2999992370605469 0.3000001907348633 L 0.2999992370605469 14.70000076293945 L 21.70000076293945 14.70000076293945 L 21.70000076293945 0.3000001907348633 L 0.2999992370605469 0.3000001907348633 M 0 9.5367431640625e-07 L 22 9.5367431640625e-07 L 22 15 L 0 15 L 0 9.5367431640625e-07 Z" stroke="none" fill="#EEEEEE"></path></g></g></g></svg>