<svg xmlns:xlink="http://www.w3.org/1999/xlink" xmlns="http://www.w3.org/2000/svg" width="22" height="16" viewBox="0 0 22 16" class="sc-16bnk0f-4 gwFfSU" style="fill: var(--ac-white);"><defs><clipPath id="e4jg4s4mwa"><path data-name="\uC0AC\uAC01\uD615 1577" transform="translate(-35.766 -22)" d="M0 0h20v13H0z" style="fill: rgb(255, 255, 255);"></path></clipPath></defs><path d="M0 0h22v16H0z" style="" fill="none"></path><g data-name="\uB9C8\uC2A4\uD06C \uADF8\uB8F9 82" transform="translate(36.766 23.5)" style="clip-path: url(&quot;#e4jg4s4mwa&quot;);" fill="#FAFAFA"><g data-name="82e8f0ba23b7861b4ae69bcf0523076d2151136ad3591c81e8cb49e563a6c46a9faaaa519f1f60a1f581714ddcf63c8c8c22d79c9e93ba0b010ca00663baf8299aae72f15145ba74831539" fill="#FAFAFA"><path data-name="\uC0AC\uAC01\uD615 1578" d="M0 0h20.469v13.123H0z" transform="translate(-36 -22.061)" style="" fill="#B22234"></path><path data-name="\uD328\uC2A4 2446" d="M0 1.336h20.469m0 2.019H0m0 2.019h20.469m0 2.019H0m0 2.019h20.469m0 2.019H0" transform="translate(-36 -21.883)" style="" stroke="#FFFFFF" fill="#FAFAFA" stroke-width="0.891px"></path><path data-name="\uC0AC\uAC01\uD615 1579" d="M0 0h8.188v7.066H0z" transform="translate(-36 -22.061)" style="" fill="#3C3B6E"></path><g data-name="\uADF8\uB8F9 2197" fill="#FAFAFA"><path d="M.71.267.9 1 .394.546h.631L.515 1z" transform="translate(-36.027 -22.025)" style="" fill="#FFFFFF"></path><path data-name="\uD328\uC2A4 2447" d="M.71.267.9 1 .394.546h.631L.515 1z" transform="translate(-36.027 -20.612)" style="" fill="#FFFFFF"></path><path data-name="\uD328\uC2A4 2448" d="M.71.267.9 1 .394.546h.631L.515 1z" transform="translate(-36.027 -19.199)" style="" fill="#FFFFFF"></path><path data-name="\uD328\uC2A4 2449" d="M.71.267.9 1 .394.546h.631L.515 1z" transform="translate(-36.027 -17.786)" style="" fill="#FFFFFF"></path><path data-name="\uD328\uC2A4 2450" d="M.71.267.9 1 .394.546h.631L.515 1z" transform="translate(-36.027 -16.372)" style="" fill="#FFFFFF"></path><g data-name="\uADF8\uB8F9 2187" fill="#FAFAFA"><path data-name="s" d="M.71.267.9 1 .394.546h.631L.515 1z" transform="translate(-35.345 -21.318)" style="" fill="#FFFFFF"></path><path data-name="\uD328\uC2A4 2451" d="M.71.267.9 1 .394.546h.631L.515 1z" transform="translate(-35.345 -19.905)" style="" fill="#FFFFFF"></path><path data-name="\uD328\uC2A4 2452" d="M.71.267.9 1 .394.546h.631L.515 1z" transform="translate(-35.345 -18.492)" style="" fill="#FFFFFF"></path><path data-name="\uD328\uC2A4 2453" d="M.71.267.9 1 .394.546h.631L.515 1z" transform="translate(-35.345 -17.079)" style="" fill="#FFFFFF"></path></g><g data-name="\uADF8\uB8F9 2189" fill="#FAFAFA"><g data-name="s5" fill="#FAFAFA"><g data-name="s4" fill="#FAFAFA"><path data-name="s" d="M.71.267.9 1 .394.546h.631L.515 1z" transform="translate(-34.662 -22.025)" style="" fill="#FFFFFF"></path><path data-name="\uD328\uC2A4 2454" d="M.71.267.9 1 .394.546h.631L.515 1z" transform="translate(-34.662 -20.612)" style="" fill="#FFFFFF"></path><path data-name="\uD328\uC2A4 2455" d="M.71.267.9 1 .394.546h.631L.515 1z" transform="translate(-34.662 -19.199)" style="" fill="#FFFFFF"></path><path data-name="\uD328\uC2A4 2456" d="M.71.267.9 1 .394.546h.631L.515 1z" transform="translate(-34.662 -17.786)" style="" fill="#FFFFFF"></path></g><path data-name="\uD328\uC2A4 2457" d="M.71.267.9 1 .394.546h.631L.515 1z" transform="translate(-34.662 -16.372)" style="" fill="#FFFFFF"></path></g><g data-name="\uADF8\uB8F9 2188" fill="#FAFAFA"><path data-name="s" d="M.71.267.9 1 .394.546h.631L.515 1z" transform="translate(-33.98 -21.318)" style="" fill="#FFFFFF"></path><path data-name="\uD328\uC2A4 2458" d="M.71.267.9 1 .394.546h.631L.515 1z" transform="translate(-33.98 -19.905)" style="" fill="#FFFFFF"></path><path data-name="\uD328\uC2A4 2459" d="M.71.267.9 1 .394.546h.631L.515 1z" transform="translate(-33.98 -18.492)" style="" fill="#FFFFFF"></path><path data-name="\uD328\uC2A4 2460" d="M.71.267.9 1 .394.546h.631L.515 1z" transform="translate(-33.98 -17.079)" style="" fill="#FFFFFF"></path></g></g><g data-name="\uADF8\uB8F9 2193" fill="#FAFAFA"><g data-name="s9" fill="#FAFAFA"><g data-name="s5" fill="#FAFAFA"><g data-name="s4" fill="#FAFAFA"><path data-name="s" d="M.71.267.9 1 .394.546h.631L.515 1z" transform="translate(-33.298 -22.025)" style="" fill="#FFFFFF"></path><path data-name="\uD328\uC2A4 2461" d="M.71.267.9 1 .394.546h.631L.515 1z" transform="translate(-33.298 -20.612)" style="" fill="#FFFFFF"></path><path data-name="\uD328\uC2A4 2462" d="M.71.267.9 1 .394.546h.631L.515 1z" transform="translate(-33.298 -19.199)" style="" fill="#FFFFFF"></path><path data-name="\uD328\uC2A4 2463" d="M.71.267.9 1 .394.546h.631L.515 1z" transform="translate(-33.298 -17.786)" style="" fill="#FFFFFF"></path></g><path data-name="\uD328\uC2A4 2464" d="M.71.267.9 1 .394.546h.631L.515 1z" transform="translate(-33.298 -16.372)" style="" fill="#FFFFFF"></path></g><g data-name="\uADF8\uB8F9 2190" fill="#FAFAFA"><path data-name="s" d="M.71.267.9 1 .394.546h.631L.515 1z" transform="translate(-32.616 -21.318)" style="" fill="#FFFFFF"></path><path data-name="\uD328\uC2A4 2465" d="M.71.267.9 1 .394.546h.631L.515 1z" transform="translate(-32.616 -19.905)" style="" fill="#FFFFFF"></path><path data-name="\uD328\uC2A4 2466" d="M.71.267.9 1 .394.546h.631L.515 1z" transform="translate(-32.616 -18.492)" style="" fill="#FFFFFF"></path><path data-name="\uD328\uC2A4 2467" d="M.71.267.9 1 .394.546h.631L.515 1z" transform="translate(-32.616 -17.079)" style="" fill="#FFFFFF"></path></g></g><g data-name="\uADF8\uB8F9 2192" fill="#FAFAFA"><g data-name="s5" fill="#FAFAFA"><g data-name="s4" fill="#FAFAFA"><path data-name="s" d="M.71.267.9 1 .394.546h.631L.515 1z" transform="translate(-31.933 -22.025)" style="" fill="#FFFFFF"></path><path data-name="\uD328\uC2A4 2468" d="M.71.267.9 1 .394.546h.631L.515 1z" transform="translate(-31.933 -20.612)" style="" fill="#FFFFFF"></path><path data-name="\uD328\uC2A4 2469" d="M.71.267.9 1 .394.546h.631L.515 1z" transform="translate(-31.933 -19.199)" style="" fill="#FFFFFF"></path><path data-name="\uD328\uC2A4 2470" d="M.71.267.9 1 .394.546h.631L.515 1z" transform="translate(-31.933 -17.786)" style="" fill="#FFFFFF"></path></g><path data-name="\uD328\uC2A4 2471" d="M.71.267.9 1 .394.546h.631L.515 1z" transform="translate(-31.933 -16.372)" style="" fill="#FFFFFF"></path></g><g data-name="\uADF8\uB8F9 2191" fill="#FAFAFA"><path data-name="s" d="M.71.267.9 1 .394.546h.631L.515 1z" transform="translate(-31.251 -21.318)" style="" fill="#FFFFFF"></path><path data-name="\uD328\uC2A4 2472" d="M.71.267.9 1 .394.546h.631L.515 1z" transform="translate(-31.251 -19.905)" style="" fill="#FFFFFF"></path><path data-name="\uD328\uC2A4 2473" d="M.71.267.9 1 .394.546h.631L.515 1z" transform="translate(-31.251 -18.492)" style="" fill="#FFFFFF"></path><path data-name="\uD328\uC2A4 2474" d="M.71.267.9 1 .394.546h.631L.515 1z" transform="translate(-31.251 -17.079)" style="" fill="#FFFFFF"></path></g></g></g><g data-name="\uADF8\uB8F9 2195" fill="#FAFAFA"><g data-name="s5" fill="#FAFAFA"><g data-name="s4" fill="#FAFAFA"><path data-name="s" d="M.71.267.9 1 .394.546h.631L.515 1z" transform="translate(-30.569 -22.025)" style="" fill="#FFFFFF"></path><path data-name="\uD328\uC2A4 2475" d="M.71.267.9 1 .394.546h.631L.515 1z" transform="translate(-30.569 -20.612)" style="" fill="#FFFFFF"></path><path data-name="\uD328\uC2A4 2476" d="M.71.267.9 1 .394.546h.631L.515 1z" transform="translate(-30.569 -19.199)" style="" fill="#FFFFFF"></path><path data-name="\uD328\uC2A4 2477" d="M.71.267.9 1 .394.546h.631L.515 1z" transform="translate(-30.569 -17.786)" style="" fill="#FFFFFF"></path></g><path data-name="\uD328\uC2A4 2478" d="M.71.267.9 1 .394.546h.631L.515 1z" transform="translate(-30.569 -16.372)" style="" fill="#FFFFFF"></path></g><g data-name="\uADF8\uB8F9 2194" fill="#FAFAFA"><path data-name="s" d="M.71.267.9 1 .394.546h.631L.515 1z" transform="translate(-29.887 -21.318)" style="" fill="#FFFFFF"></path><path data-name="\uD328\uC2A4 2479" d="M.71.267.9 1 .394.546h.631L.515 1z" transform="translate(-29.887 -19.905)" style="" fill="#FFFFFF"></path><path data-name="\uD328\uC2A4 2480" d="M.71.267.9 1 .394.546h.631L.515 1z" transform="translate(-29.887 -18.492)" style="" fill="#FFFFFF"></path><path data-name="\uD328\uC2A4 2481" d="M.71.267.9 1 .394.546h.631L.515 1z" transform="translate(-29.887 -17.079)" style="" fill="#FFFFFF"></path></g></g><g data-name="\uADF8\uB8F9 2196" fill="#FAFAFA"><g data-name="s4" fill="#FAFAFA"><path data-name="s" d="M.71.267.9 1 .394.546h.631L.515 1z" transform="translate(-29.204 -22.025)" style="" fill="#FFFFFF"></path><path data-name="\uD328\uC2A4 2482" d="M.71.267.9 1 .394.546h.631L.515 1z" transform="translate(-29.204 -20.612)" style="" fill="#FFFFFF"></path><path data-name="\uD328\uC2A4 2483" d="M.71.267.9 1 .394.546h.631L.515 1z" transform="translate(-29.204 -19.199)" style="" fill="#FFFFFF"></path><path data-name="\uD328\uC2A4 2484" d="M.71.267.9 1 .394.546h.631L.515 1z" transform="translate(-29.204 -17.786)" style="" fill="#FFFFFF"></path></g><path data-name="\uD328\uC2A4 2485" d="M.71.267.9 1 .394.546h.631L.515 1z" transform="translate(-29.204 -16.372)" style="" fill="#FFFFFF"></path></g></g></g></g></svg>