<svg xmlns:xlink="http://www.w3.org/1999/xlink" xmlns="http://www.w3.org/2000/svg" width="32" height="32" viewBox="0 0 32 32" class="sc-r3uwxn-2 hgieyN" style="fill: var(--ac-black);"><g data-name="\uD0C0\uC6D0 224" style="" stroke="#DDDDDD" fill="#EEEEEE"><circle cx="16" cy="16" r="16" style="stroke: none;" fill="#EEEEEE"></circle><circle cx="16" cy="16" r="15.5" style="" stroke="#DDDDDD" fill="none"></circle></g><path data-name="\uD569\uCE58\uAE30 17" d="M-19.545 10.375a3.878 3.878 0 0 0 2.433-.846l.357-.283.283-.357a3.878 3.878 0 0 0 .846-2.433 3.924 3.924 0 0 0-3.92-3.92 3.924 3.924 0 0 0-3.92 3.92 3.924 3.924 0 0 0 3.92 3.92m6.4 3.063a.585.585 0 0 1-.416-.173l-2.815-2.816a5.075 5.075 0 0 1-3.164 1.1 5.1 5.1 0 0 1-5.1-5.1 5.1 5.1 0 0 1 5.1-5.1 5.1 5.1 0 0 1 5.1 5.1 5.075 5.075 0 0 1-1.1 3.164l2.815 2.815a.587.587 0 0 1 0 .831.585.585 0 0 1-.424.178z" transform="translate(34.941 8.601)" style="" stroke="#AAAAAA" fill="#AAAAAA" stroke-width="0.2px"></path></svg>