<svg xmlns:xlink="http://www.w3.org/1999/xlink" xmlns="http://www.w3.org/2000/svg" width="16" height="16" viewBox="0 0 16 16" class="sc-1vpiru6-2 geqjIM" style="fill: var(--ac-white);"><path d="M0 0h16v16H0z" style="" fill="none"></path><g data-name="\uADF8\uB8F9 844" transform="translate(.239 .239)" fill="#FAFAFA"><circle data-name="\uD0C0\uC6D0 118" cx="8" cy="8" r="8" transform="translate(-.239 -.239)" style="" fill="#DDDDDD"></circle><path data-name="\uD569\uCE58\uAE30 7" d="M6.168 7.024 3.6 4.457 1.033 7.024a.605.605 0 0 1-.856-.856L2.745 3.6.177 1.033a.605.605 0 0 1 .856-.855L3.6 2.745 6.168.178a.6.6 0 0 1 .856.856L4.456 3.6l2.568 2.568a.605.605 0 0 1-.856.856z" transform="translate(4.16 4.16)" style="" fill="#FFFFFF"></path></g></svg>