<svg xmlns:xlink="http://www.w3.org/1999/xlink" xmlns="http://www.w3.org/2000/svg" width="28" height="28" viewBox="0 0 28 28" class="sc-1vpiru6-1 igHpQg search-icon" style="fill: var(--ac-white);"><path d="M0 0h28v28H0z" style="" fill="none"></path><path data-name="\uD569\uCE58\uAE30 17" d="M-16.914 15.031a5.881 5.881 0 0 0 3.69-1.283l.542-.43.429-.542a5.881 5.881 0 0 0 1.283-3.69 5.951 5.951 0 0 0-5.944-5.944 5.951 5.951 0 0 0-5.944 5.944 5.951 5.951 0 0 0 5.944 5.944m9.7 4.645a.887.887 0 0 1-.63-.262l-4.269-4.269a7.7 7.7 0 0 1-4.8 1.669 7.727 7.727 0 0 1-7.727-7.727 7.727 7.727 0 0 1 7.727-7.727 7.727 7.727 0 0 1 7.727 7.727 7.7 7.7 0 0 1-1.669 4.8l4.269 4.269a.89.89 0 0 1 0 1.26.887.887 0 0 1-.63.26z" transform="translate(29.483 3.482)" fill="#999999"></path></svg>