<svg xmlns:xlink="http://www.w3.org/1999/xlink" xmlns="http://www.w3.org/2000/svg" width="260" height="36" viewBox="0 0 260 36" style="fill: var(--ac-white);"><g data-name="Recently" fill="#FAFAFA"><path data-name="\uC0AC\uAC01\uD615 1720" d="M0 0h260v36H0z" style="" fill="none"></path><path data-name="\uD328\uC2A4 3012" d="M19.162-12.4c0-3.64-2.678-5.8-7.332-5.8H4.056L.416 0h5.148l.962-4.836h2.6L11.83 0h5.382l-3.094-5.46a7.031 7.031 0 0 0 5.044-6.94zm-5.2.494c0 2-1.326 3.094-3.588 3.094H7.306L8.4-14.144h2.7c1.77 0 2.862.702 2.862 2.236zm21.4 3.77c0-3.692-2.652-6.188-6.942-6.188-5.07 0-8.528 3.458-8.528 8.138 0 3.926 2.964 6.422 7.488 6.422a9.98 9.98 0 0 0 6.006-1.82L31.33-4.68a5.438 5.438 0 0 1-3.406 1.144c-1.95 0-3.016-.728-3.2-2.288h10.35a10.631 10.631 0 0 0 .286-2.314zm-7.176-2.678a2.322 2.322 0 0 1 2.624 2.39h-5.8a3.2 3.2 0 0 1 3.174-2.392zM43.888.234a7.83 7.83 0 0 0 6.994-3.64L47.268-5.59a3.264 3.264 0 0 1-3.042 1.846 2.522 2.522 0 0 1-2.756-2.73c0-2.314 1.456-3.9 3.458-3.9a2.748 2.748 0 0 1 2.73 1.874l4.212-2c-1.066-2.418-3.484-3.822-6.682-3.822-5.1 0-8.736 3.484-8.736 8.138 0 3.87 2.938 6.418 7.436 6.418zm23.556-8.372c0-3.692-2.652-6.188-6.942-6.188-5.07 0-8.528 3.458-8.528 8.138 0 3.926 2.964 6.422 7.488 6.422a9.98 9.98 0 0 0 6.006-1.82L63.414-4.68a5.438 5.438 0 0 1-3.406 1.144c-1.95 0-3.016-.728-3.2-2.288h10.35a10.631 10.631 0 0 0 .286-2.314zm-7.176-2.678a2.322 2.322 0 0 1 2.626 2.392H57.1a3.2 3.2 0 0 1 3.168-2.392zm19.448-3.51a6.422 6.422 0 0 0-4.42 1.69l.286-1.456H70.9L68.094 0h4.94l1.4-6.968c.442-2.158 1.612-3.172 3.3-3.172 1.326 0 1.95.65 1.95 1.872a4.123 4.123 0 0 1-.1.936L78.13 0h4.94l1.56-7.8a8.448 8.448 0 0 0 .182-1.742c0-3.146-2.08-4.784-5.096-4.784zM93.678-9.88h3.2l.728-3.692h-3.2l.728-3.666h-4.94l-.728 3.666h-2.054l-.754 3.692h2.08L87.8-5.226a6.023 6.023 0 0 0-.13 1.326c0 2.626 1.872 4.134 4.758 4.134A7.468 7.468 0 0 0 96.1-.6L95.472-4a3.116 3.116 0 0 1-1.482.416c-.858 0-1.3-.416-1.3-1.2a3.653 3.653 0 0 1 .052-.468zM97.812 0h4.94l3.848-19.292h-4.94zm20.956-14.092-5.2 8.658-1.768-8.658h-4.914l3.2 14.2A2.328 2.328 0 0 1 108 1.378a3.314 3.314 0 0 1-2.18-.806l-2.21 3.484a6.7 6.7 0 0 0 3.978 1.222c2.964 0 4.784-1.066 6.994-4.654l9.018-14.716zm29.848 1.69c0-3.64-2.678-5.8-7.332-5.8h-7.774L129.87 0h5.148l.962-4.836h2.6L141.284 0h5.382l-3.094-5.46a7.031 7.031 0 0 0 5.044-6.94zm-5.2.494c0 2-1.326 3.094-3.588 3.094h-3.068l1.092-5.33h2.7c1.772 0 2.864.702 2.864 2.236zm21.4 3.77c0-3.692-2.652-6.188-6.942-6.188-5.07 0-8.528 3.458-8.528 8.138 0 3.926 2.964 6.422 7.488 6.422a9.98 9.98 0 0 0 6.006-1.82l-2.056-3.094a5.438 5.438 0 0 1-3.406 1.144c-1.95 0-3.016-.728-3.2-2.288h10.348a10.63 10.63 0 0 0 .288-2.314zm-7.176-2.678a2.322 2.322 0 0 1 2.626 2.392h-5.8a3.2 3.2 0 0 1 3.172-2.392zM165.464 0h4.94l3.848-19.292h-4.94zm24.076-8.138c0-3.692-2.652-6.188-6.942-6.188-5.07 0-8.528 3.458-8.528 8.138 0 3.926 2.964 6.422 7.488 6.422a9.98 9.98 0 0 0 6.006-1.82L185.51-4.68a5.438 5.438 0 0 1-3.41 1.144c-1.95 0-3.016-.728-3.2-2.288h10.348a10.63 10.63 0 0 0 .292-2.314zm-7.176-2.678a2.322 2.322 0 0 1 2.626 2.392h-5.8a3.2 3.2 0 0 1 3.174-2.392zm20.592-3.276-.338 1.69a4.812 4.812 0 0 0-4.316-1.924 7.793 7.793 0 0 0-7.644 8.138c0 4.108 2.912 6.422 5.954 6.422a5.784 5.784 0 0 0 4.082-1.56L200.408 0h4.68l2.812-14.092zm-4.628 10.348a2.473 2.473 0 0 1-2.678-2.678c0-2.366 1.4-3.952 3.354-3.952a2.493 2.493 0 0 1 2.678 2.7c0 2.344-1.382 3.93-3.354 3.93zM213.772.234c4.186 0 7.488-1.716 7.488-5.1 0-4.706-7.28-3.2-7.28-4.888 0-.572.65-1.066 2.262-1.066a8.153 8.153 0 0 1 4.186 1.066l1.742-3.458a12.352 12.352 0 0 0-5.356-1.118c-4.264 0-7.514 1.742-7.514 5.122 0 4.758 7.306 3.276 7.306 4.888 0 .624-.65 1.014-2.262 1.014a9.665 9.665 0 0 1-4.888-1.3l-1.794 3.458a12.555 12.555 0 0 0 6.11 1.382zm24.648-8.372c0-3.692-2.652-6.188-6.942-6.188-5.07 0-8.528 3.458-8.528 8.138 0 3.926 2.964 6.422 7.488 6.422a9.98 9.98 0 0 0 6.006-1.82L234.39-4.68a5.438 5.438 0 0 1-3.406 1.144c-1.95 0-3.016-.728-3.2-2.288h10.348a10.63 10.63 0 0 0 .288-2.314zm-7.176-2.678a2.322 2.322 0 0 1 2.626 2.392h-5.8a3.2 3.2 0 0 1 3.174-2.392zm21.71-8.476-1.378 6.838a4.885 4.885 0 0 0-4.29-1.872 7.814 7.814 0 0 0-7.67 8.138c0 4.108 2.912 6.422 5.954 6.422a5.78 5.78 0 0 0 4.082-1.612L249.366 0h4.68l3.848-19.292zm-5.668 15.548a2.453 2.453 0 0 1-2.652-2.678c0-2.366 1.378-3.952 3.354-3.952a2.473 2.473 0 0 1 2.652 2.7c0 2.344-1.378 3.93-3.354 3.93z" transform="translate(-.156 27.007)" style="" fill="#08080D"></path></g></svg>