<svg xmlns:xlink="http://www.w3.org/1999/xlink" xmlns="http://www.w3.org/2000/svg" width="34.52" height="31.572" viewBox="0 0 34.52 31.572" class="sc-1my22l7-5 tSExF" style="fill: var(--ac-white);"><defs><filter id="bmpuxfwu5a" x="0" y="0" width="34.52" height="31.57" filterUnits="userSpaceOnUse"><feOffset></feOffset><feGaussianBlur stdDeviation="2" result="blur"></feGaussianBlur><feFlood flood-color="#08080d" flood-opacity="0.405"></feFlood><feComposite operator="in" in2="blur"></feComposite><feComposite in="SourceGraphic"></feComposite></filter><filter id="gehrsvwfbb" x="0" y="0.002" width="34.519" height="31.569" filterUnits="userSpaceOnUse"><feOffset></feOffset><feGaussianBlur stdDeviation="2" result="blur-2"></feGaussianBlur><feFlood flood-color="#08080d" flood-opacity="0.405"></feFlood><feComposite operator="in" in2="blur-2"></feComposite><feComposite in="SourceGraphic"></feComposite></filter></defs><path transform="translate(3.26 1.718)" d="M0 0h28v28H0z" style="" fill="none"></path><g style="filter: url(&quot;#bmpuxfwu5a&quot;);" fill="#FAFAFA"><path data-name="\uD328\uC2A4 1620" d="M-2781.156-2995.161h-.021a.966.966 0 0 1-.627-.233c-.271-.23-6.668-5.667-8.838-8.184a6.844 6.844 0 0 1 .037-9.235 6.1 6.1 0 0 1 8.881 0l.568.593.569-.593a6.1 6.1 0 0 1 8.883 0 6.845 6.845 0 0 1 .036 9.235c-2.17 2.516-8.569 7.953-8.839 8.184a.943.943 0 0 1-.609.233z" transform="translate(2798.42 3020.73)" style="opacity: 0.05;" fill="#AAAAAA"></path></g><g style="filter: url(&quot;#gehrsvwfbb&quot;);" fill="#FAFAFA"><path data-name="\uD328\uC2A4 835" d="M20.71 7.615a6.1 6.1 0 0 0-8.882 0l-.569.593-.568-.593a6.1 6.1 0 0 0-8.882 0 6.844 6.844 0 0 0-.036 9.235 120.418 120.418 0 0 0 8.838 8.184.964.964 0 0 0 .626.233h.022a.933.933 0 0 0 .648-.232 120.454 120.454 0 0 0 8.839-8.184 6.844 6.844 0 0 0-.036-9.236zm-1.442 7.846a107.649 107.649 0 0 1-8.009 7.439 107.418 107.418 0 0 1-8.008-7.443 4.729 4.729 0 0 1-.036-6.378 4.169 4.169 0 0 1 6.07 0l1.25 1.305a.948.948 0 0 0 .533.281.969.969 0 0 0 .915-.28l1.251-1.306a4.17 4.17 0 0 1 6.07 0 4.73 4.73 0 0 1-.036 6.382z" transform="translate(6 .31)" style="" fill="#FBF9F9"></path></g></svg>