<svg xmlns:xlink="http://www.w3.org/1999/xlink" xmlns="http://www.w3.org/2000/svg" width="124" height="34" viewBox="0 0 124 34" class="sc-j7axxh-7 cYCDHj" style="fill: var(--ac-black);"><title>home</title><defs><linearGradient id="ikgpqc6qea" x1="0.069" y1="0.382" x2="0.837" y2="0.814" gradientUnits="objectBoundingBox"><stop offset="0" stop-color="#6626b9"></stop><stop offset="0.242" stop-color="#7535cf"></stop><stop offset="0.497" stop-color="#8242e2"></stop><stop offset="0.747" stop-color="#8144de"></stop><stop offset="1" stop-color="#7131c8"></stop></linearGradient><linearGradient id="ikgpqc6qea" x1="0.069" y1="0.382" x2="0.837" y2="0.814" gradientUnits="objectBoundingBox"><stop offset="0" stop-color="#6626b9"></stop><stop offset="0.242" stop-color="#7535cf"></stop><stop offset="0.497" stop-color="#8242e2"></stop><stop offset="0.747" stop-color="#8144de"></stop><stop offset="1" stop-color="#7131c8"></stop></linearGradient></defs><path data-name="\uC0AC\uAC01\uD615 1134" d="M0 0h124v34H0z" style="" fill="none"></path><g data-name="\uADF8\uB8F9 1368" fill="#08080D"><path data-name="\uD328\uC2A4 1427" d="M423.407 142.554a3.111 3.111 0 0 0-1.664-.5c-.889 0-1.5 1.093-1.5 3.28v4.244h-2.409v-9.6h2.409v1.483c.278-1.038.871-1.65 1.816-1.65a2.769 2.769 0 0 1 1.349.352z" transform="translate(-380.926 -125.943)" fill="#08080D"></path><path data-name="\uD328\uC2A4 1428" d="M485.313 119.635h1.76v2.039h-1.76v3.373c0 1.5.111 2.094.723 2.094a2.458 2.458 0 0 0 1.056-.26v2.15a2.976 2.976 0 0 1-1.52.352c-2.094 0-2.65-1.131-2.668-3.447v-4.262h-.945v-2.039h.945v-2.094l2.409-.371z" transform="translate(-438.544 -105.6)" fill="#08080D"></path><path data-name="\uD328\uC2A4 1429" d="M546.068 107.059a1.585 1.585 0 1 1-1.575-1.575 1.6 1.6 0 0 1 1.575 1.575m-.371 11.675h-2.409v-9.6h2.412z" transform="translate(-493.299 -95.1)" fill="#08080D"></path><path data-name="\uD328\uC2A4 1430" d="M588.435 146.85c.963 0 1.742-.389 1.742-.908 0-.686-1.668-.871-2.947-1.149-1.538-.352-3.6-.445-3.6-2.947 0-2.094 1.8-2.946 4.337-2.946 2.372 0 4.355 1.075 4.522 3.614h-2.409c-.148-.982-1.223-1.427-2.3-1.427-.982 0-1.668.278-1.668.778 0 .7 1.464.871 2.335.982 1.26.167 4.207.26 4.207 3.058 0 2.131-1.742 3.132-4.169 3.132-3.113 0-5.226-.686-5.282-3.5h2.409c.074 1.112 2.02 1.316 2.817 1.316" transform="translate(-529.518 -125.125)" fill="#08080D"></path><path data-name="\uD328\uC2A4 1431" d="M686.438 119.635h1.76v2.039h-1.76v3.373c0 1.5.111 2.094.723 2.094a2.459 2.459 0 0 0 1.057-.26v2.15a2.977 2.977 0 0 1-1.52.352c-2.094 0-2.65-1.131-2.668-3.447v-4.262h-.945v-2.039h.945v-2.094l2.409-.371z" transform="translate(-619.257 -105.6)" fill="#08080D"></path><path data-name="\uD328\uC2A4 1432" d="M748.083 146.85c.963 0 1.742-.389 1.742-.908 0-.686-1.668-.871-2.947-1.149-1.538-.352-3.6-.445-3.6-2.947 0-2.094 1.8-2.946 4.337-2.946 2.372 0 4.355 1.075 4.522 3.614h-2.409c-.148-.982-1.223-1.427-2.3-1.427-.982 0-1.668.278-1.668.778 0 .7 1.464.871 2.335.982 1.26.167 4.206.26 4.206 3.058 0 2.131-1.742 3.132-4.169 3.132-3.114 0-5.226-.686-5.282-3.5h2.409c.074 1.112 2.02 1.316 2.817 1.316" transform="translate(-672.963 -125.125)" fill="#08080D"></path><path data-name="\uD328\uC2A4 1433" d="M882.647 116.385c-3.614 0-6.32-2.65-6.32-6.764 0-5 2.724-7.061 6.32-7.061 2.668 0 5.689 1.3 6.1 4.67h-2.557a3.493 3.493 0 0 0-3.539-2.316c-1.909 0-3.8 1.316-3.8 4.707a4.165 4.165 0 0 0 3.8 4.411 3.6 3.6 0 0 0 3.465-2.113h2.576c-.371 1.668-1.742 4.466-6.041 4.466" transform="translate(-792.887 -92.472)" fill="#08080D"></path><path data-name="\uD328\uC2A4 1434" d="M1015.541 148.759h-1.668l-.556-1.056c-.352.779-1.575 1.334-3.262 1.334-2.2 0-3.91-.963-3.91-3.261 0-2.483 2.28-3.243 4.374-3.243a5.971 5.971 0 0 1 2.613.667 2 2 0 0 0-2.168-2.112c-1.019 0-1.946.408-1.946.982h-2.409c0-2 1.8-3.169 4.448-3.169 3.354 0 4.485 1.816 4.485 4.892zm-2.409-2.965V145a4.748 4.748 0 0 0-2.427-.741c-.908 0-1.909.408-1.909 1.409a1.54 1.54 0 0 0 1.742 1.556 3.269 3.269 0 0 0 2.594-1.427" transform="translate(-909.529 -125.125)" fill="#08080D"></path><path data-name="\uD328\uC2A4 1435" d="M1180.794 105.484v13.25h-2.409v-1.019c-.445 1.057-1.427 1.3-2.743 1.3-3.021 0-4.337-2.261-4.337-5 0-2.761 1.353-5.133 4.281-5.133 1.3 0 2.335.3 2.8 1.371v-4.762zm-2.539 8.469c0-1.3-.519-2.891-2.279-2.891-1.538 0-2.243 1.409-2.243 2.891 0 1.5.519 2.873 2.243 2.873 1.76 0 2.279-1.557 2.279-2.873" transform="translate(-1057.928 -95.1)" fill="#08080D"></path><path data-name="\uD328\uC2A4 1436" d="M840.917 107.53h2.409v5.111l-2.409.37z" transform="translate(-761.071 -96.938)" fill="#08080D"></path><path data-name="\uD328\uC2A4 1437" d="M1118.166 142.554a3.11 3.11 0 0 0-1.664-.5c-.889 0-1.5 1.093-1.5 3.28v4.244h-2.409v-9.6H1115v1.483c.278-1.038.871-1.65 1.816-1.65a2.769 2.769 0 0 1 1.349.352z" transform="translate(-1005.172 -125.943)" fill="#08080D"></path><path data-name="\uD328\uC2A4 1426" d="M288.325 118.734h-2.465l-1.649-3.614h-5.3l-1.649 3.614H274.8l5.56-13.25h2.409zm-8.692-5.893h3.854l-1.927-5z" transform="translate(-252.406 -95.1)" fill="#08080D"></path></g><g data-name="\uADF8\uB8F9 1375" fill="#08080D"><path data-name="Path 24" d="M84.176 289.508h-9.164l-4.583-7.936 4.583-7.937h9.164l4.583 7.937-.036.061z" transform="translate(-70.028 -264.574)" style="" fill="url(&quot;#ikgpqc6qea&quot;)"></path><g data-name="\uADF8\uB8F9 1376" fill="#08080D"><path data-name="\uD328\uC2A4 1439" d="M110.924 125.132a.088.088 0 0 0-.063-.027.06.06 0 0 0-.05.013.09.09 0 0 0-.029.065l-.005.079c-.034.368-.215 1.576-1.13 1.7a.833.833 0 0 1-.732-.248 1.684 1.684 0 0 1-.309-.453 9.286 9.286 0 0 1-.557-3.8c0-1.371.115-2.512.117-2.522a.082.082 0 0 0-.07-.087.08.08 0 0 0-.091.065c-.728 3.592-2.073 7.473-3.434 8.047a.379.379 0 0 1-.5-.094.672.672 0 0 1-.037-.057l-.017-.029.015-.03a5.173 5.173 0 0 0 .351-.954c.35-1.329.692-2.951.331-3.135-.113-.057-.248.012-.406.214a6.362 6.362 0 0 0-.484 3.889l.01.025-.01.015a3 3 0 0 1-2.206 1.665.081.081 0 0 0 .008.162 3 3 0 0 0 1.81-1 3.492 3.492 0 0 0 .449-.6l.043-.073.058.062a.485.485 0 0 0 .431.15.769.769 0 0 0 .22-.056 1.509 1.509 0 0 0 .335-.208c.967-.748 1.986-3.013 2.8-6.214l.143-.562-.018.58a11.3 11.3 0 0 0 .572 4.612 1.878 1.878 0 0 0 .34.507 1.015 1.015 0 0 0 .867.293c1.187-.155 1.272-1.856 1.275-1.928a.079.079 0 0 0-.021-.059m-6.492-1.152a.705.705 0 0 1 .143-.146.115.115 0 0 1 .058-.023c.015.005.031.035.037.054l.006.02a7.226 7.226 0 0 1-.455 2.873 5.293 5.293 0 0 1-.211.643l-.086.215c0-.012-.006-.025-.009-.04-.015-.086-.034-.181-.034-.181a6.562 6.562 0 0 1 .55-3.415" transform="translate(-96.735 -108.008)" style="" fill="#FBF9F9"></path></g></g></svg>