<svg xmlns:xlink="http://www.w3.org/1999/xlink" xmlns="http://www.w3.org/2000/svg" width="16" height="16" viewBox="0 0 16 16" class="sc-1oqarg8-24 dQNMDb" style="fill: var(--ac-gray-0);"><path d="M0 0h16v16H0z" style="" fill="none"></path><path d="M5.41 6.105a.442.442 0 0 1-.352-.12L4.973 5.9l-.015-.014-.015-.016L.121 1.029a.586.586 0 0 1 .1-.807.58.58 0 0 1 .8-.1l4.385 4.4L9.794.123a.581.581 0 0 1 .8.1.585.585 0 0 1 .1.807L5.877 5.87l-.015.015-.015.015-.085.085a.432.432 0 0 1-.312.122z" transform="rotate(-90 9.502 3.909)" fill="#707084"></path></svg>