<svg xmlns:xlink="http://www.w3.org/1999/xlink" xmlns="http://www.w3.org/2000/svg" viewBox="0 0 400.1 400.1" class="sc-nzuea-1 kZyqbe" style="fill: var(--ac-white);" width="400.1"  height="400.1" ><path d="M82.76,303.45H0V400.1H96.65V303.45H82.76Zm0,27.58v55.18H13.89V317.34H82.76Zm-27.49,0h13.8v41.48H27.59V331H55.27Zm331-331H303.45V96.65H400.1V0Zm-.1,27.59V82.76H317.34V13.89h68.87ZM41.38,69.06H27.59V27.59H69.07V69.06H41.38ZM13.89,179.41H0V165.52H13.89Zm0-82.76H96.65V0H0V96.65H13.89Zm0-27.59V13.89H82.76V82.76H13.89Zm165.52,82.76H165.52V137.93h13.89Zm124,151.63h13.89v13.89H303.45Zm82.76-137.93v13.79H331.13V165.52H317.34v-13.7h13.79V138h13.8V124.14H317.34V110.35H303.45v13.89h13.79v27.48H303.55V137.93H289.66v27.59H276v-13.8H262.17V138H276V110.44h13.8V69H276V55.17H262.17V27.69h27.59V13.79H262.17V0H234.48V13.89h27.59v13.7H248.28V41.38H207V27.69h13.79V0H179.31V13.79H165.62V0H110.35V13.89h41.37V41.38H138V27.59H124.14V41.48h13.79V69H124.14V82.76H110.35v27.68h13.79v13.7H96.65V110.35H82.76v13.79H69.07V110.35H41.38v13.79H27.69V110.35H0V138H13.79v13.79H41.38v13.7H27.59V193.1H0V207H13.79v13.69H0v69.06H41.48V276H55.27V262.17H69v27.58H96.65V276H138V262.17h13.69v27.48H110.35v13.9h13.79V331H110.35v27.69h13.79v13.69H110.35V400.1h13.89V386.31h41.38v-13.8H193.2V358.72h13.7v27.49H193.1V400.1h41.48V358.62H220.79V344.93h13.79v-13.8h13.8V317.24h-13.8V303.55h27.49v41.38h27.59v27.58h13.89V344.93h13.69V400.1h27.69V386.31h27.58v-13.8h13.7v13.8H400.1V331H386.31V317.24h-13.9v27.69h13.8v13.69H358.62v13.79H344.93V358.62h-13.8V344.93h27.59V331H344.93V317.34h13.79V289.75h27.59V275.86h-13.8V262.07H358.72V248.38h27.49v13.79H400.1V248.28H386.31v-13.8H358.72V220.79h13.79V193.2h13.7v27.59H400.1V151.72H386.21ZM27.59,137.93H13.89V124.24h13.7Zm110.34,206.9H124.24v-13.7h13.69ZM289.76,165.62h13.69v13.69H289.76Zm-13.9,13.79h13.8V193.1H262.17V179.41ZM207,96.65V69.06h13.79V55.27h27.49V69.06h27.58V96.55H262.17V82.76H248.28v27.59h-13.7V82.76H220.69v27.59H207Zm13.79,41.28V124.24h27.49v27.48h-13.7V137.93Zm13.79,27.69h13.8v-13.8h13.69v27.49H234.58Zm13.8-41.48v-13.7h13.69v13.7ZM207,165.62v-13.8h27.48v13.7H220.69v13.79H207ZM193.2,55.27h13.7V69H193.2ZM165.62,41.48V27.69h13.69V41.48H193.1V55.17H165.62ZM193.1,82.86v27.49H179.41V82.86Zm-27.48-13.8h13.69v13.7H165.62Zm-27.59,0h13.69v13.7H138Zm-13.79,13.8h13.69V96.55H124.24Zm0,41.38h13.69v13.69H124.24ZM96.65,138h13.7v13.69H96.65Zm0,55.17h13.7v13.7H96.65Zm-13.79-69H96.55v13.69H82.86Zm0,27.58H96.55v13.7H82.86ZM41.48,138H69v27.49H55.27v-13.8H41.48Zm0,27.59H55.17v13.69H41.48ZM69,248.28H41.38v27.58H27.69V248.28H13.89V220.79h13.8V207H55.17v27.58H69Zm13.79,13.79H69.07V248.38H82.76Zm0-41.38H69.07V206.9H55.27V193.2h13.8V165.62H82.76v13.79H96.55V193.1H82.76V207H96.55v13.69H82.76Zm13.79,55.17H82.86V262.17H96.55Zm41.38-13.79H110.45V248.28H82.86v-13.7H96.65V220.79h13.7v13.79h13.79v13.8h13.79Zm0-55.17v13.79H110.45V207h13.79V193.1H110.45V179.41h27.48V193.2h13.89V165.52H124.24v-13.7H138V138h13.79V124.14H138V96.65h13.79V82.86h13.7v41.38H193.1v41.28H179.31v13.79H165.52V193.2h13.89V179.41H206.9V193.1H193.1v13.8H165.52v13.79h-13.7V206.9Zm13.89,55.17V248.38h13.7v13.69Zm13.7,27.68v13.7h-13.7v-13.7ZM138,248.28V220.79h13.69v27.49Zm0,55.27h13.69v13.69H138Zm41.28,55.07H151.72v13.79H138V344.93h41.28Zm0-41.38H165.62V303.55h13.69Zm0-41.38v13.79H165.62V262.17h13.69Zm55.17,27.59H220.79v-13.7h13.69Zm27.59-41.38v13.79H220.69v13.79H206.9v27.69h27.58V331H220.69v13.8H193.2V262.17h55.18V248.38h13.69Zm69,41.38V331H289.76V289.75H331Zm0-27.59H276V262.17h13.8V248.38h13.69v13.79H331Zm13.8-41.38H331v13.8H303.55v-13.8H248.28v13.8H220.79v-13.8H206.9v13.8H165.62v-13.7h13.79V220.79h41.38V193.2h13.69V207h13.9V193.2h13.69v27.59h27.69V207h27.58V179.41H331v41.38h13.8Zm13.79,13.8H344.93v-13.7h13.69Zm0-41.38v13.79H344.93V193.2h13.69Zm27.59-96.55H400.1v13.89H386.31V138h-13.8v13.79H358.72v13.8H344.83v-13.9h13.79V124.14h27.59ZM276,386.21h13.8V400.1H262.07V372.51H248.28V358.62H276v27.59ZM358.72,27.59h13.79V69.06H331V27.59h27.69Z"></path></svg>