<svg xmlns:xlink="http://www.w3.org/1999/xlink" xmlns="http://www.w3.org/2000/svg" width="30" height="30" viewBox="0 0 30 30" style="fill: var(--ac-gray-2);"><path data-name="youtube_gray_\uD328\uC2A4 1053" d="M0 0h30v30H0z" style="" fill="none"></path><path data-name="youtube_gray_\uD328\uC2A4 1054" d="M26.429 7.123A38.822 38.822 0 0 1 27 14a38.822 38.822 0 0 1-.571 6.877 3.514 3.514 0 0 1-2.423 2.523c-2.136.6-9.506.6-9.506.6s-7.366 0-9.506-.595a3.513 3.513 0 0 1-2.423-2.528A38.823 38.823 0 0 1 2 14a38.823 38.823 0 0 1 .571-6.877 3.514 3.514 0 0 1 2.423-2.528C7.134 4 14.5 4 14.5 4s7.37 0 9.506.595a3.513 3.513 0 0 1 2.423 2.528zM12 18.375 19.5 14 12 9.625z" transform="translate(.5 1)" fill="#AAAAAA"></path></svg>