<svg xmlns:xlink="http://www.w3.org/1999/xlink" xmlns="http://www.w3.org/2000/svg" width="118" height="40" viewBox="0 0 118 40" class="sc-nzuea-4 fTURiS" style="fill: var(--ac-white);"><defs><clipPath id="clip-path"><path id="\uC0AC\uAC01\uD615_103" class="cls-1" d="M0 0h20v20H0z"></path></clipPath><style>
            .cls-1{fill:none}.cls-4{fill:#08080d}
        </style></defs><g id="app_store" data-name="app store" transform="translate(-1258 -902)" fill="#FAFAFA"><g id="\uC0AC\uAC01\uD615_1050" data-name="\uC0AC\uAC01\uD615 1050" transform="translate(1258 902)" style="" stroke="#DDDDDD" fill="none"><rect width="118" height="40" rx="5" style="stroke: none;" fill="none"></rect><rect class="cls-1" x="0.5" y="0.5" width="117" height="39" rx="4.5" stroke="#DDDDDD" fill="none"></rect></g><g id="\uB9C8\uC2A4\uD06C_\uADF8\uB8F9_21" transform="translate(1278 912)" style="clip-path: url(&quot;#clip-path&quot;);" fill="#FAFAFA"><g id="\uADF8\uB8F9_3" transform="translate(3.663 1.302)" fill="#FAFAFA"><g id="\uADF8\uB8F9_2" fill="#FAFAFA"><path id="\uD328\uC2A4_19" class="cls-4" d="M-1578.582-516.5a3.557 3.557 0 0 1 1.686-2.982 3.619 3.619 0 0 0-2.854-1.55c-1.2-.127-2.366.72-2.978.72s-1.566-.71-2.582-.689a3.8 3.8 0 0 0-3.2 1.96c-1.383 2.406-.352 5.941.974 7.886.663.953 1.44 2.016 2.452 1.978.992-.041 1.36-.635 2.56-.635s1.534.635 2.569.611c1.065-.017 1.735-.96 2.375-1.92a7.88 7.88 0 0 0 1.086-2.222 3.434 3.434 0 0 1-2.088-3.157z" transform="translate(1589.167 524.817)" fill="#08080D"></path><path id="\uD328\uC2A4_20" class="cls-4" d="M-1465.635-590.844a3.507 3.507 0 0 0 .8-2.507 3.545 3.545 0 0 0-2.294 1.192 3.34 3.34 0 0 0-.818 2.415 2.927 2.927 0 0 0 2.313-1.1z" transform="translate(1474.266 593.351)" fill="#08080D"></path></g></g></g><text id="App_Store-2" data-name="App Store" transform="translate(1302 927)" style="font-size: 12px; font-family: Pretendard-Bold, Pretendard; font-weight: 700; letter-spacing: -0.02em;" fill="#08080D"><tspan x="0" y="0" fill="#08080D">App Store</tspan></text></g></svg>