<svg xmlns:xlink="http://www.w3.org/1999/xlink" xmlns="http://www.w3.org/2000/svg" width="128" height="40" viewBox="0 0 128 40" class="sc-nzuea-4 fTURiS" style="fill: var(--ac-white);"><defs><linearGradient id="linear-gradient" x1="14.627" y1="10.159" x2="14.516" y2="10.188" gradientUnits="objectBoundingBox"><stop offset="0" stop-color="#00a0ff"></stop><stop offset="0.007" stop-color="#00a1ff"></stop><stop offset="0.26" stop-color="#00beff"></stop><stop offset="0.512" stop-color="#00d2ff"></stop><stop offset="0.76" stop-color="#00dfff"></stop><stop offset="1" stop-color="#00e3ff"></stop></linearGradient><linearGradient id="linear-gradient-2" x1="17.018" y1="24.959" x2="16.758" y2="24.959" gradientUnits="objectBoundingBox"><stop offset="0" stop-color="#ffe000"></stop><stop offset="0.409" stop-color="#ffbd00"></stop><stop offset="0.775" stop-color="orange"></stop><stop offset="1" stop-color="#ff9c00"></stop></linearGradient><linearGradient id="linear-gradient-3" x1="11.546" y1="17.593" x2="11.455" y2="17.746" gradientUnits="objectBoundingBox"><stop offset="0" stop-color="#ff3a44"></stop><stop offset="1" stop-color="#c31162"></stop></linearGradient><linearGradient id="linear-gradient-4" x1="11.476" y1="18.46" x2="11.516" y2="18.528" gradientUnits="objectBoundingBox"><stop offset="0" stop-color="#32a071"></stop><stop offset="0.068" stop-color="#2da771"></stop><stop offset="0.476" stop-color="#15cf74"></stop><stop offset="0.801" stop-color="#06e775"></stop><stop offset="1" stop-color="#00f076"></stop></linearGradient><clipPath id="clip-path"><path id="\uD328\uC2A4_1186" data-name="\uD328\uC2A4 1186" class="cls-1" d="M0 0h20v20H0z"></path></clipPath><style>
            .cls-1{fill:none}
        </style><linearGradient id="linear-gradient" x1="14.627" y1="10.159" x2="14.516" y2="10.188" gradientUnits="objectBoundingBox"><stop offset="0" stop-color="#00a0ff"></stop><stop offset="0.007" stop-color="#00a1ff"></stop><stop offset="0.26" stop-color="#00beff"></stop><stop offset="0.512" stop-color="#00d2ff"></stop><stop offset="0.76" stop-color="#00dfff"></stop><stop offset="1" stop-color="#00e3ff"></stop></linearGradient><linearGradient id="linear-gradient-2" x1="17.018" y1="24.959" x2="16.758" y2="24.959" gradientUnits="objectBoundingBox"><stop offset="0" stop-color="#ffe000"></stop><stop offset="0.409" stop-color="#ffbd00"></stop><stop offset="0.775" stop-color="orange"></stop><stop offset="1" stop-color="#ff9c00"></stop></linearGradient><linearGradient id="linear-gradient-3" x1="11.546" y1="17.593" x2="11.455" y2="17.746" gradientUnits="objectBoundingBox"><stop offset="0" stop-color="#ff3a44"></stop><stop offset="1" stop-color="#c31162"></stop></linearGradient><linearGradient id="linear-gradient-4" x1="11.476" y1="18.46" x2="11.516" y2="18.528" gradientUnits="objectBoundingBox"><stop offset="0" stop-color="#32a071"></stop><stop offset="0.068" stop-color="#2da771"></stop><stop offset="0.476" stop-color="#15cf74"></stop><stop offset="0.801" stop-color="#06e775"></stop><stop offset="1" stop-color="#00f076"></stop></linearGradient></defs><g id="google_play" data-name="google play" transform="translate(-1318 -902)" fill="#FAFAFA"><g id="\uC0AC\uAC01\uD615_1051" data-name="\uC0AC\uAC01\uD615 1051" transform="translate(1318 902)" style="" stroke="#DDDDDD" fill="none"><rect width="128" height="40" rx="5" style="stroke: none;" fill="none"></rect><rect class="cls-1" x="0.5" y="0.5" width="127" height="39" rx="4.5" stroke="#DDDDDD" fill="none"></rect></g><g id="\uADF8\uB8F9_911" data-name="\uADF8\uB8F9 911" transform="translate(1338 912)" style="clip-path: url(&quot;#clip-path&quot;);" fill="#FAFAFA"><g id="\uADF8\uB8F9_910" data-name="\uADF8\uB8F9 910" transform="translate(4.001 2.185)" fill="#FAFAFA"><path id="\uD328\uC2A4_1179" data-name="\uD328\uC2A4 1179" d="M2007.725-1842.106a1.226 1.226 0 0 0-.274.85v13.339a1.165 1.165 0 0 0 .28.844l.047.041 7.45-7.474v-.167l-7.455-7.475z" transform="translate(-2007.448 1842.347)" style="fill-rule: evenodd;" fill="url(&quot;#linear-gradient&quot;)"></path><path id="\uD328\uC2A4_1180" data-name="\uD328\uC2A4 1180" d="m2161.778-1739.969-2.484-2.492v-.175l2.484-2.493.054.033 2.939 1.676a.917.917 0 0 1 .632.871.917.917 0 0 1-.632.871l-2.939 1.675z" transform="translate(-2151.521 1750.309)" style="fill-rule: evenodd;" fill="url(&quot;#linear-gradient-2&quot;)"></path><path id="\uD328\uC2A4_1181" data-name="\uD328\uC2A4 1181" d="m2022.849-1692.329-2.539-2.549-7.5 7.52a.982.982 0 0 0 1.249.041l8.785-5.014" transform="translate(-2012.537 1702.637)" style="fill-rule: evenodd;" fill="url(&quot;#linear-gradient-3&quot;)"></path><path id="\uD328\uC2A4_1182" data-name="\uD328\uC2A4 1182" d="m2022.849-1840.725-8.785-5.006a.971.971 0 0 0-1.249.04l7.5 7.513z" transform="translate(-2012.537 1845.939)" style="fill-rule: evenodd;" fill="url(&quot;#linear-gradient-4&quot;)"></path><path id="\uD328\uC2A4_1183" data-name="\uD328\uC2A4 1183" d="m2022.9-1646.322-8.727 4.973a.987.987 0 0 1-1.2.006l-.046.046.046.041a.99.99 0 0 0 1.2-.006l8.785-5.006z" transform="translate(-2012.647 1656.575)" style="isolation: isolate; opacity: 0.2; fill-rule: evenodd;" fill="#FAFAFA"></path><path id="\uD328\uC2A4_1184" data-name="\uD328\uC2A4 1184" d="m2210.7-1694.092-3 1.709.054.054 2.939-1.676a1.057 1.057 0 0 0 .628-.871 1.087 1.087 0 0 1-.621.784z" transform="translate(-2197.451 1702.636)" style="opacity: 0.12; isolation: isolate; fill-rule: evenodd;" fill="#FAFAFA"></path><path id="\uD328\uC2A4_1185" data-name="\uD328\uC2A4 1185" d="m2008.976-1845.691 11.724 6.682a1.107 1.107 0 0 1 .628.784 1.056 1.056 0 0 0-.628-.871l-11.724-6.682c-.842-.483-1.524-.077-1.524.884v.087c0-.965.682-1.361 1.524-.884z" transform="translate(-2007.449 1845.986)" style="opacity: 0.25; isolation: isolate; fill-rule: evenodd;" fill="#FFFFFF"></path></g></g><text id="Google_Play-2" data-name="Google Play" transform="translate(1362 927)" style="font-size: 12px; font-family: Pretendard-Bold, Pretendard; font-weight: 700; letter-spacing: -0.02em;" fill="#08080D"><tspan x="0" y="0" fill="#08080D">Google Play</tspan></text></g></svg>