<svg xmlns:xlink="http://www.w3.org/1999/xlink" xmlns="http://www.w3.org/2000/svg" width="30" height="30" viewBox="0 0 30 30" style="fill: var(--ac-gray-2);"><path data-name="insta_gray_\uC0AC\uAC01\uD615 943" d="M0 0h30v30H0z" style="" fill="none"></path><path data-name="insta_gray_\uBE7C\uAE30 15" d="M17.573 22.574H5a5.006 5.006 0 0 1-5-5V5a5.006 5.006 0 0 1 5-5h12.573a5.006 5.006 0 0 1 5 5v12.573a5.006 5.006 0 0 1-5 5.001zM11.287 6.27a5.017 5.017 0 1 0 5.013 5.017 5.022 5.022 0 0 0-5.013-5.017zm6.584-3.135A1.567 1.567 0 1 0 19.438 4.7a1.569 1.569 0 0 0-1.567-1.564zm-6.584 11.287a3.135 3.135 0 1 1 3.136-3.135 3.138 3.138 0 0 1-3.136 3.135z" transform="translate(3.762 3.762)" fill="#AAAAAA"></path></svg>