<svg xmlns:xlink="http://www.w3.org/1999/xlink" xmlns="http://www.w3.org/2000/svg" width="24" height="24" viewBox="0 0 24 24" style="fill: var(--ac-white);"><path d="M0 0h24v24H0z" style="" fill="none"></path><path d="m7.918 18.347-.239-.24-.018-.018-.021-.021-5.894-5.924C1.5 11.9 1.618 11.388 2 11s.9-.5 1.139-.257l4.22 4.237V1a1 1 0 0 1 2 0v13.98l4.215-4.236c.244-.245.754-.13 1.139.257s.5.9.258 1.144L9.1 18.05l-.038.04-.034.033-.222.223a.509.509 0 0 1-.442.122.739.739 0 0 1-.1.007.47.47 0 0 1-.346-.128z" transform="rotate(180 10.18 10.712)" style="" fill="#08080D"></path></svg>