<svg xmlns:xlink="http://www.w3.org/1999/xlink" xmlns="http://www.w3.org/2000/svg" width="24" height="24" viewBox="0 0 24 24" class="sc-8inspy-14 iojEjf" style="fill: var(--ac-gray-2);"><path data-name="\uD328\uC2A4 1053" d="M0 0h24v24H0z" style="" fill="none"></path><path data-name="\uD328\uC2A4 2357" d="M301.128 397.984a8.2 8.2 0 0 1-2.216.563 3.648 3.648 0 0 0 1.7-1.978 8.106 8.106 0 0 1-2.45.867 4 4 0 0 0-2.816-1.129 3.725 3.725 0 0 0-3.859 3.575 3.336 3.336 0 0 0 .1.815 11.265 11.265 0 0 1-7.953-3.735 3.36 3.36 0 0 0-.522 1.8 3.512 3.512 0 0 0 1.717 2.975 4.078 4.078 0 0 1-1.748-.447v.045a3.658 3.658 0 0 0 3.1 3.505 4.166 4.166 0 0 1-1.742.061 3.837 3.837 0 0 0 3.6 2.482 8.14 8.14 0 0 1-4.792 1.53 8.462 8.462 0 0 1-.92-.05 11.559 11.559 0 0 0 5.915 1.606c7.1 0 10.978-5.447 10.978-10.171q0-.232-.011-.463a7.546 7.546 0 0 0 1.925-1.85z" transform="translate(-279.724 -391.387)" fill="#AAAAAA"></path></svg>