<svg xmlns:xlink="http://www.w3.org/1999/xlink" xmlns="http://www.w3.org/2000/svg" width="100" height="24" viewBox="0 0 100 24" class="sc-8inspy-15 fskPez" style="fill: var(--ac-white);"><path data-name="\uC0AC\uAC01\uD615 1765" d="M0 0h100v24H0z" style="" fill="none"></path><g data-name="\uADF8\uB8F9 2669" fill="#FAFAFA"><path data-name="\uD328\uC2A4 3107" d="M163.381 416.377a3.75 3.75 0 0 1 .872-2.394 3.124 3.124 0 0 1 1.05-.813 3.214 3.214 0 0 1 1.418-.3 2.909 2.909 0 0 1 1.611.431 2.641 2.641 0 0 1 .986 1.105l-.545.337a2.086 2.086 0 0 0-.573-.743 2.251 2.251 0 0 0-.738-.392 2.665 2.665 0 0 0-.778-.119 2.392 2.392 0 0 0-1.12.253 2.491 2.491 0 0 0-.818.674 3 3 0 0 0-.5.942 3.409 3.409 0 0 0-.169 1.056 3.2 3.2 0 0 0 .2 1.12 3.035 3.035 0 0 0 .555.947 2.723 2.723 0 0 0 .837.654 2.284 2.284 0 0 0 1.046.243 2.562 2.562 0 0 0 .813-.138 2.53 2.53 0 0 0 .778-.426 2.079 2.079 0 0 0 .58-.743l.575.3a2.223 2.223 0 0 1-.674.892 3.274 3.274 0 0 1-1.016.555 3.423 3.423 0 0 1-1.1.188 2.852 2.852 0 0 1-1.328-.312 3.407 3.407 0 0 1-1.046-.833 3.84 3.84 0 0 1-.679-1.17 3.791 3.791 0 0 1-.238-1.314" transform="translate(-138.544 -404.436)" style="" stroke="#2B2525" fill="#2B2525" stroke-width="0.5px"></path><path data-name="\uC0AC\uAC01\uD615 1764" transform="translate(32.5 8.481)" d="M0 0h.694v7.038H0z" style="" stroke="#2B2525" fill="#2B2525" stroke-width="0.5px"></path><path data-name="\uD328\uC2A4 3108" d="M216.318 416.94h2.3a1.18 1.18 0 0 0 .724-.228 1.5 1.5 0 0 0 .476-.6 1.891 1.891 0 0 0 .168-.788 1.666 1.666 0 0 0-.709-1.373 1.234 1.234 0 0 0-.718-.223h-2.24zm-.694 3.212v-7.038h2.976a1.841 1.841 0 0 1 .833.188 2.158 2.158 0 0 1 .659.511 2.415 2.415 0 0 1 .436.714 2.171 2.171 0 0 1 .154.8 2.364 2.364 0 0 1-.193.952 2.085 2.085 0 0 1-.545.753 1.787 1.787 0 0 1-.828.406l1.725 2.716h-.783l-1.655-2.6h-2.082v2.6z" transform="translate(-180.27 -404.633)" style="" stroke="#2B2525" fill="#2B2525" stroke-width="0.5px"></path><path data-name="\uD328\uC2A4 3109" d="M247.433 416.377a3.75 3.75 0 0 1 .872-2.394 3.123 3.123 0 0 1 1.051-.813 3.212 3.212 0 0 1 1.417-.3 2.91 2.91 0 0 1 1.611.431 2.64 2.64 0 0 1 .986 1.105l-.545.337a2.089 2.089 0 0 0-.575-.738 2.253 2.253 0 0 0-.738-.392 2.666 2.666 0 0 0-.778-.119 2.389 2.389 0 0 0-1.12.253 2.493 2.493 0 0 0-.818.674 3 3 0 0 0-.5.942 3.4 3.4 0 0 0-.168 1.056 3.2 3.2 0 0 0 .2 1.12 3.038 3.038 0 0 0 .555.947 2.726 2.726 0 0 0 .838.654 2.285 2.285 0 0 0 1.046.243 2.56 2.56 0 0 0 .813-.138 2.529 2.529 0 0 0 .778-.426 2.076 2.076 0 0 0 .58-.743l.575.3a2.225 2.225 0 0 1-.674.892 3.272 3.272 0 0 1-1.016.555 3.424 3.424 0 0 1-1.1.188 2.851 2.851 0 0 1-1.328-.312 3.411 3.411 0 0 1-1.046-.833 3.838 3.838 0 0 1-.679-1.17 3.791 3.791 0 0 1-.238-1.314" transform="translate(-205.675 -404.436)" style="" stroke="#2B2525" fill="#2B2525" stroke-width="0.5px"></path><path data-name="\uD328\uC2A4 3110" d="M285.5 420.152v-7.038h.694v6.423h4.064v.615z" transform="translate(-236.076 -404.633)" style="" stroke="#2B2525" fill="#2B2525" stroke-width="0.5px"></path><path data-name="\uD328\uC2A4 3111" d="M320.9 419.538v.615h-4.728v-7.038h4.639v.615h-3.945v2.538h3.44v.585h-3.44v2.686z" transform="translate(-260.577 -404.633)" style="" stroke="#2B2525" fill="#2B2525" stroke-width="0.5px"></path><path data-name="\uD328\uC2A4 3112" d="M360.34 416.377a3.749 3.749 0 0 1 .872-2.394 3.124 3.124 0 0 1 1.051-.813 3.213 3.213 0 0 1 1.417-.3 2.909 2.909 0 0 1 1.611.431 2.64 2.64 0 0 1 .986 1.105l-.545.337a2.086 2.086 0 0 0-.575-.738 2.254 2.254 0 0 0-.739-.392 2.665 2.665 0 0 0-.778-.119 2.39 2.39 0 0 0-1.12.253 2.49 2.49 0 0 0-.818.674 3 3 0 0 0-.5.942 3.4 3.4 0 0 0-.169 1.056 3.191 3.191 0 0 0 .2 1.12 3.039 3.039 0 0 0 .555.947 2.724 2.724 0 0 0 .838.654 2.283 2.283 0 0 0 1.046.243 2.562 2.562 0 0 0 .813-.138 2.532 2.532 0 0 0 .778-.426 2.081 2.081 0 0 0 .58-.743l.575.3a2.225 2.225 0 0 1-.674.892 3.272 3.272 0 0 1-1.016.555 3.424 3.424 0 0 1-1.1.188 2.852 2.852 0 0 1-1.328-.312 3.409 3.409 0 0 1-1.046-.833 3.848 3.848 0 0 1-.679-1.17 3.8 3.8 0 0 1-.238-1.314" transform="translate(-295.854 -404.436)" style="" stroke="#2B2525" fill="#2B2525" stroke-width="0.5px"></path><path data-name="\uD328\uC2A4 3113" d="M403.952 413.114v7.038h-.684v-3.291H399.1v3.291h-.7v-7.038h.694v3.132h4.173v-3.132z" transform="translate(-326.253 -404.633)" style="" stroke="#2B2525" fill="#2B2525" stroke-width="0.5px"></path><path data-name="\uD328\uC2A4 3114" d="m437.541 417.406-1.39-3.479-1.391 3.479zm-1.678-4.292h.585l2.924 7.038h-.733l-.88-2.2h-3.217l-.879 2.2h-.744z" transform="translate(-353.822 -404.633)" style="" stroke="#2B2525" fill="#2B2525" stroke-width="0.5px"></path><path data-name="\uD328\uC2A4 3115" d="M472.66 416.94h2.3a1.181 1.181 0 0 0 .724-.228 1.5 1.5 0 0 0 .476-.6 1.891 1.891 0 0 0 .168-.788 1.666 1.666 0 0 0-.709-1.373 1.234 1.234 0 0 0-.719-.223h-2.24zm-.694 3.212v-7.038h2.974a1.841 1.841 0 0 1 .833.188 2.157 2.157 0 0 1 .659.511 2.417 2.417 0 0 1 .436.714 2.17 2.17 0 0 1 .154.8 2.364 2.364 0 0 1-.193.952 2.09 2.09 0 0 1-.545.753 1.787 1.787 0 0 1-.828.406l1.725 2.716h-.781l-1.655-2.6h-2.085v2.6z" transform="translate(-385.009 -404.633)" style="" stroke="#2B2525" fill="#2B2525" stroke-width="0.5px"></path><path data-name="\uD328\uC2A4 3116" d="M502.2 413.114v.615h2.508v6.423h.694v-6.423h2.508v-.615z" transform="translate(-409.155 -404.633)" style="" stroke="#2B2525" fill="#2B2525" stroke-width="0.5px"></path><path data-name="\uD328\uC2A4 3117" d="M40.455 388.074A10.277 10.277 0 0 1 50.5 377.812v-.455a10.719 10.719 0 0 0 0 21.434v-.455a10.278 10.278 0 0 1-10.04-10.262" transform="translate(-40 -376.074)" style="" fill="#B94045"></path><path data-name="\uD328\uC2A4 3118" d="M44.9 391.984a9.747 9.747 0 0 0 9.51 9.732v-.455a9.279 9.279 0 0 1 0-18.553v-.455a9.747 9.747 0 0 0-9.51 9.732" transform="translate(-43.91 -379.984)" style="" fill="#B94045"></path><path data-name="\uD328\uC2A4 3119" d="M50.273 395.916a8.3 8.3 0 0 1 8.064-8.285v-.455a8.743 8.743 0 0 0 0 17.481v-.457a8.3 8.3 0 0 1-8.064-8.285" transform="translate(-47.842 -383.916)" style="" fill="#B94045"></path><path data-name="\uD328\uC2A4 3120" d="M54.741 399.848a7.763 7.763 0 0 0 7.528 7.749v-.455a7.3 7.3 0 0 1 0-14.588v-.454a7.763 7.763 0 0 0-7.528 7.749" transform="translate(-51.774 -387.848)" style="" fill="#B94045"></path><path data-name="\uD328\uC2A4 3121" d="M60.12 403.779a6.315 6.315 0 0 1 6.081-6.3v-.455a6.762 6.762 0 0 0 0 13.517v-.455a6.315 6.315 0 0 1-6.081-6.3" transform="translate(-55.706 -391.78)" style="" fill="#B94045"></path><path data-name="\uD328\uC2A4 3122" d="M64.588 407.712a5.779 5.779 0 0 0 5.545 5.767v-.455a5.317 5.317 0 0 1 0-10.625v-.455a5.779 5.779 0 0 0-5.545 5.767" transform="translate(-59.638 -395.712)" style="" fill="#B94045"></path><path data-name="\uD328\uC2A4 3123" d="M104.891 388.074a10.733 10.733 0 0 0-10.5-10.717v.455a10.264 10.264 0 0 1 0 20.524v.455a10.733 10.733 0 0 0 10.5-10.717" transform="translate(-83.446 -376.074)" style="" fill="#3B6DB0"></path><path data-name="\uD328\uC2A4 3124" d="M103.451 391.984a9.291 9.291 0 0 1-9.051 9.276v.455a9.734 9.734 0 0 0 0-19.463v.455a9.291 9.291 0 0 1 9.055 9.276" transform="translate(-83.446 -379.984)" style="" fill="#3B6DB0"></path><path data-name="\uD328\uC2A4 3125" d="M102.915 395.916a8.755 8.755 0 0 0-8.519-8.74v.455a8.288 8.288 0 0 1 0 16.57v.455a8.755 8.755 0 0 0 8.519-8.741" transform="translate(-83.446 -383.916)" style="" fill="#3B6DB0"></path><path data-name="\uD328\uC2A4 3126" d="M101.469 399.848a7.307 7.307 0 0 1-7.072 7.294v.455a7.753 7.753 0 0 0 0-15.5v.455a7.307 7.307 0 0 1 7.072 7.294" transform="translate(-83.446 -387.848)" style="" fill="#3B6DB0"></path><path data-name="\uD328\uC2A4 3127" d="M100.933 403.779a6.771 6.771 0 0 0-6.537-6.758v.455a6.307 6.307 0 0 1 0 12.607v.455a6.771 6.771 0 0 0 6.537-6.758" transform="translate(-83.446 -391.78)" style="" fill="#3B6DB0"></path><path data-name="\uD328\uC2A4 3128" d="M99.486 407.712a5.324 5.324 0 0 1-5.09 5.312v.455a5.772 5.772 0 0 0 0-11.535v.455a5.324 5.324 0 0 1 5.09 5.312" transform="translate(-83.446 -395.712)" style="" fill="#3B6DB0"></path></g></svg>