<svg xmlns:xlink="http://www.w3.org/1999/xlink" xmlns="http://www.w3.org/2000/svg" width="108" height="24" viewBox="0 0 108 24" class="sc-8inspy-15 fskPez" style="fill: var(--ac-white);"><g transform="translate(1.66 2)" fill="#FAFAFA"><path data-name="\uC0AC\uAC01\uD615 1784" transform="translate(-1.66 -2)" d="M0 0h108v24H0z" style="" fill="none"></path><rect data-name="\uC0AC\uAC01\uD615 1778" width="3.585" height="19.417" rx="1.792" transform="translate(5.463 -.088)" style="" fill="#DD3A6C"></rect><rect data-name="\uC0AC\uAC01\uD615 1779" width="3.585" height="21.689" rx="1.792" transform="translate(18.422 -1.226)" style="" fill="#DD3A6C"></rect><rect data-name="\uC0AC\uAC01\uD615 1780" width="4.943" height="4.943" rx="2.472" transform="translate(11.266 7.146)" style="" fill="#DD3A6C"></rect><rect data-name="\uC0AC\uAC01\uD615 1781" width="3.585" height="9.604" rx="1.792" transform="translate(24.902 4.816)" style="" fill="#666666"></rect><rect data-name="\uC0AC\uAC01\uD615 1782" width="3.585" height="16.428" rx="1.792" transform="translate(31.383 1.402)" style="" fill="#666666"></rect><rect data-name="\uC0AC\uAC01\uD615 1783" width="3.585" height="10.994" rx="1.792" transform="translate(-1.018 4.124)" style="" fill="#666666"></rect><path data-name="\uD328\uC2A4 3148" d="M118.987 18.619a.728.728 0 0 1-.72-.728v-2.942h-4.672v2.942a.735.735 0 0 1-.747.728.728.728 0 0 1-.728-.728v-7.355a.728.728 0 0 1 .728-.716.735.735 0 0 1 .739.724v2.942h4.68v-2.942a.728.728 0 0 1 1.452 0V17.9a.728.728 0 0 1-.732.72z" transform="translate(-69.736 -4.219)" style="" fill="#333333"></path><path data-name="\uD328\uC2A4 3150" d="M148.522 18.616a.67.67 0 0 1-.658-.472l-.685-1.637h-4.908l-.7 1.676a.7.7 0 0 1-.658.434.716.716 0 0 1-.712-.712.62.62 0 0 1 .066-.294l2.791-6.685a1.835 1.835 0 0 1 2.69-.809 1.959 1.959 0 0 1 .643.8l2.845 6.809v.163a.72.72 0 0 1-.712.728zm-7.742-.774-.213-.093h.043l-.043-.019.124.054.108.046zm-.05-.023.05.023zm2.141-2.752h3.72l-1.514-3.612a.314.314 0 0 0-.108-.151l-.05-.035a.422.422 0 0 0-.194-.043.468.468 0 0 0-.151.031l-.07.035a.434.434 0 0 0-.128.163z" transform="translate(-86.945 -4.217)" style="" fill="#333333"></path><path data-name="\uD328\uC2A4 3152" d="M177.993 18.649a1.161 1.161 0 0 1-.945-.48l-4.974-6.414v6.155a.712.712 0 1 1-1.425 0v-6.879a1.166 1.166 0 0 1 2.106-.685l5 6.395V10.59a.712.712 0 1 1 1.425 0v6.879a1.185 1.185 0 0 1-1.187 1.18z" transform="translate(-105.609 -4.25)" style="" fill="#333333"></path><path data-name="\uD328\uC2A4 3154" d="M203.9 18.619a.735.735 0 0 1-.743-.728v-6.608h-2.443a.732.732 0 1 1 0-1.463h6.356a.732.732 0 1 1 0 1.463h-2.435v6.608a.728.728 0 0 1-.735.728z" transform="translate(-123.586 -4.219)" style="" fill="#333333"></path><path data-name="\uD328\uC2A4 3156" d="M231.435 18.619h-2.71a3.836 3.836 0 0 1-3.786-3.786v-1.227a3.836 3.836 0 0 1 3.786-3.786h2.71a.732.732 0 1 1 0 1.463h-2.71a2.323 2.323 0 0 0-2.323 2.2h4.548a.728.728 0 0 1 .728.724.735.735 0 0 1-.728.743h-4.55a2.323 2.323 0 0 0 2.323 2.2h2.71a.735.735 0 1 1 0 1.467z" transform="translate(-138.885 -4.219)" style="" fill="#333333"></path><path data-name="\uD328\uC2A4 3158" d="M256.6 18.619h-1.51a3.794 3.794 0 0 1-3.79-3.786v-1.227a3.836 3.836 0 0 1 3.79-3.786h1.51a3.836 3.836 0 0 1 3.786 3.786v1.227a3.836 3.836 0 0 1-3.786 3.786zm-1.5-7.335a2.323 2.323 0 0 0-2.323 2.323v1.227a2.323 2.323 0 0 0 2.323 2.323h1.5a2.35 2.35 0 0 0 2.323-2.323v-1.228a2.354 2.354 0 0 0-2.323-2.323z" transform="translate(-155.041 -4.219)" style="" fill="#333333"></path></g></svg>