<svg id="\uB808\uC774\uC5B4_1" xmlns="http://www.w3.org/2000/svg" xmlns:xlink="http://www.w3.org/1999/xlink" x="0px" y="0px" viewBox="0 0 100.406 36" enable-background="new 0 0 100.406 36" xml:space="preserve" width="100" height="36" style="fill: var(--ac-white);"><path fill="none" d="M0,0h100.406v36H0V0z"></path><g fill="#FAFAFA"><path fill="none" d="M39.326,16.569c-0.659,0-1.24,0.165-1.742,0.494c-0.503,0.329-0.897,0.793-1.183,1.391 c-0.286,0.598-0.429,1.296-0.429,2.093c0,0.832,0.234,1.495,0.702,1.989c0.468,0.493,1.118,0.74,1.95,0.74 c0.659,0,1.239-0.169,1.742-0.507c0.502-0.338,0.897-0.802,1.183-1.391c0.286-0.589,0.429-1.282,0.429-2.08 c0-0.78-0.23-1.43-0.689-1.95C40.829,16.829,40.175,16.569,39.326,16.569z"></path><path fill="none" d="M13.144,13.371c-0.503-0.364-1.205-0.546-2.106-0.546H8.339l-1.066,5.33h3.063 c1.126,0,2.002-0.269,2.626-0.806c0.624-0.537,0.936-1.3,0.936-2.288C13.897,14.298,13.646,13.735,13.144,13.371z"></path><path fill="none" d="M67.487,18.545c0.006-0.354-0.038-0.673-0.147-0.949c-0.182-0.459-0.485-0.814-0.91-1.066 c-0.425-0.251-0.949-0.377-1.573-0.377c-0.797,0-1.452,0.199-1.963,0.598s-0.893,0.94-1.144,1.625 c-0.02,0.054-0.026,0.114-0.045,0.169H67.487z"></path><path d="M17.173,10.303c-1.283-1.022-3.103-1.534-5.46-1.534H4.018l-3.64,18.2h5.148l0.948-4.758h3.628 c1.837,0,3.432-0.312,4.784-0.937s2.392-1.508,3.12-2.652s1.092-2.479,1.092-4.004C19.098,12.764,18.456,11.326,17.173,10.303z  M12.961,17.349c-0.624,0.538-1.5,0.806-2.626,0.806H7.273l1.066-5.33h2.699c0.901,0,1.603,0.182,2.106,0.546 c0.502,0.364,0.754,0.928,0.754,1.69C13.897,16.049,13.585,16.812,12.961,17.349z" style="" fill="#08080D"></path><path d="M27.86,13.345c-0.567,0.259-1.066,0.63-1.51,1.092l0.314-1.56h-4.68l-2.808,14.092h4.94l1.352-6.656 c0.225-1.178,0.68-2.023,1.365-2.535s1.564-0.767,2.639-0.767c0.19,0,0.373,0.004,0.546,0.013s0.364,0.03,0.572,0.065l0.858-4.446 C30.078,12.643,28.882,12.877,27.86,13.345z" style="" fill="#08080D"></path><path d="M45.877,23.225c0.745-1.23,1.118-2.626,1.118-4.186c0-1.3-0.304-2.427-0.91-3.38c-0.607-0.953-1.46-1.694-2.561-2.223 c-1.101-0.528-2.405-0.793-3.913-0.793c-1.682,0-3.172,0.355-4.472,1.066c-1.3,0.711-2.323,1.677-3.068,2.899 c-0.746,1.222-1.118,2.613-1.118,4.172c0,1.283,0.303,2.405,0.91,3.367c0.606,0.962,1.464,1.712,2.574,2.249 c1.109,0.538,2.409,0.807,3.9,0.807c1.681,0,3.172-0.355,4.472-1.066S45.132,24.456,45.877,23.225z M41.549,21.379 c-0.286,0.589-0.681,1.053-1.183,1.391c-0.503,0.338-1.083,0.507-1.742,0.507c-0.832,0-1.482-0.247-1.95-0.74 c-0.468-0.494-0.702-1.157-0.702-1.989c0-0.797,0.143-1.495,0.429-2.093c0.286-0.598,0.68-1.062,1.183-1.391 c0.502-0.329,1.083-0.494,1.742-0.494c0.849,0,1.503,0.26,1.963,0.78c0.459,0.52,0.689,1.17,0.689,1.95 C41.978,20.097,41.834,20.79,41.549,21.379z" style="" fill="#08080D"></path><path d="M48.062,26.579c-0.122,0.641-0.325,1.108-0.611,1.403s-0.671,0.442-1.157,0.442c-0.554,0-1.048-0.139-1.482-0.416 l-1.898,3.51c0.485,0.226,1.023,0.403,1.612,0.533c0.59,0.13,1.222,0.195,1.898,0.195c3.64,0,5.841-1.941,6.604-5.824l2.73-13.546 h-4.94L48.062,26.579z" style="" fill="#08080D"></path><path d="M56.355,6.741c-0.52-0.451-1.213-0.676-2.08-0.676c-0.953,0-1.72,0.269-2.301,0.806c-0.581,0.538-0.871,1.205-0.871,2.002 c0,0.676,0.256,1.252,0.767,1.729c0.511,0.477,1.2,0.715,2.067,0.715c0.953,0,1.725-0.269,2.314-0.806 c0.589-0.537,0.884-1.23,0.884-2.08C57.136,7.755,56.875,7.192,56.355,6.741z" style="" fill="#08080D"></path><path d="M68.796,13.423c-1.031-0.52-2.266-0.78-3.705-0.78c-1.699,0-3.189,0.355-4.472,1.066c-1.283,0.711-2.279,1.677-2.99,2.899 c-0.711,1.222-1.066,2.613-1.066,4.172c0,1.301,0.312,2.432,0.936,3.394s1.495,1.707,2.613,2.236 c1.118,0.528,2.431,0.793,3.939,0.793c1.057,0,2.102-0.14,3.133-0.416c1.031-0.277,1.989-0.745,2.873-1.404l-2.054-3.094 c-0.451,0.363-0.975,0.646-1.573,0.845s-1.209,0.299-1.833,0.299c-1.075,0-1.881-0.229-2.418-0.688 c-0.43-0.367-0.68-0.906-0.766-1.6h10.334c0.086-0.364,0.156-0.736,0.208-1.118c0.052-0.381,0.078-0.78,0.078-1.196 c0-1.23-0.282-2.31-0.845-3.237C70.625,14.667,69.827,13.943,68.796,13.423z M62.894,16.751c0.511-0.399,1.166-0.598,1.963-0.598 c0.624,0,1.148,0.126,1.573,0.377c0.424,0.251,0.728,0.607,0.91,1.066c0.109,0.276,0.154,0.595,0.147,0.949h-5.782 c0.018-0.055,0.025-0.115,0.045-0.169C62.001,17.691,62.383,17.15,62.894,16.751z" style="" fill="#08080D"></path><path d="M79.82,17.102c0.529-0.338,1.122-0.507,1.781-0.507c0.606,0,1.148,0.147,1.625,0.442c0.477,0.295,0.845,0.771,1.105,1.43 l4.212-2.002c-0.52-1.196-1.365-2.132-2.535-2.808s-2.552-1.014-4.147-1.014c-1.699,0-3.207,0.355-4.524,1.066 c-1.317,0.711-2.349,1.677-3.094,2.899c-0.746,1.222-1.118,2.613-1.118,4.172c0,1.283,0.308,2.405,0.923,3.367 s1.478,1.712,2.587,2.249c1.109,0.538,2.418,0.807,3.926,0.807c1.542,0,2.925-0.321,4.147-0.962 c1.222-0.642,2.171-1.534,2.847-2.679l-3.614-2.184c-0.364,0.659-0.802,1.131-1.313,1.417s-1.088,0.429-1.729,0.429 c-0.901,0-1.586-0.251-2.054-0.754c-0.468-0.503-0.702-1.161-0.702-1.976c0-0.78,0.147-1.456,0.442-2.028 C78.879,17.895,79.291,17.44,79.82,17.102z" style="" fill="#08080D"></path><path d="M96.044,17.089h3.21l0.729-3.692H96.78l0.732-3.666h-4.939l-0.73,3.666H89.79l-0.754,3.692h2.071l-0.927,4.654 c-0.226,1.144-0.173,2.128,0.156,2.95c0.329,0.824,0.884,1.448,1.664,1.872c0.78,0.425,1.716,0.638,2.808,0.638 c0.659,0,1.303-0.065,1.938-0.195c0.631-0.13,1.209-0.342,1.729-0.637l-0.625-3.406c-0.242,0.139-0.484,0.243-0.727,0.312 c-0.244,0.07-0.494,0.104-0.754,0.104c-0.504,0-0.859-0.144-1.066-0.429c-0.209-0.286-0.27-0.698-0.183-1.235L96.044,17.089z" style="" fill="#08080D"></path></g></svg>